<?xml version="1.0" encoding="UTF-8"?>
<svg width="69mm" height="4.9962mm" version="1.1" viewBox="0 0 69 4.9962" xmlns="http://www.w3.org/2000/svg" xmlns:cc="http://creativecommons.org/ns#" xmlns:dc="http://purl.org/dc/elements/1.1/" xmlns:rdf="http://www.w3.org/1999/02/22-rdf-syntax-ns#">
 <metadata>
  <rdf:RDF>
   <cc:Work rdf:about="">
    <dc:format>image/svg+xml</dc:format>
    <dc:type rdf:resource="http://purl.org/dc/dcmitype/StillImage"/>
    <dc:title/>
   </cc:Work>
  </rdf:RDF>
 </metadata>
 <g transform="translate(6.2533 -127.73)">
  <g transform="matrix(.20356 0 0 .20356 -4.9804 101.73)" fill="#fff" stroke-width=".26458" style="font-variant-caps:normal;font-variant-east-asian:normal;font-variant-ligatures:normal;font-variant-numeric:normal" aria-label="salisbury.dvlpr@gmail.com">
   <path d="m4.574 143.04q0 1.8976-1.5751 3.113-1.5627 1.2154-4.2788 1.2154-1.5379 0-2.8277-0.35966-1.2774-0.37207-2.1456-0.80616v-2.6169h0.12402q1.1038 0.83096 2.4557 1.327 1.3519 0.48369 2.5921 0.48369 1.5379 0 2.4061-0.49609 0.86816-0.4961 0.86816-1.5627 0-0.81855-0.47129-1.2402-0.47129-0.42168-1.8107-0.71934-0.49609-0.11162-1.3022-0.26045-0.79375-0.14883-1.4511-0.32246-1.8231-0.48369-2.5921-1.4139-0.75654-0.94257-0.75654-2.3068 0-0.85576 0.34727-1.6123 0.35967-0.75654 1.079-1.3518 0.69453-0.58291 1.7611-0.91778 1.079-0.34726 2.4061-0.34726 1.2402 0 2.5053 0.31006 1.2774 0.29765 2.1208 0.73174v2.4929h-0.12402q-0.89297-0.65733-2.1704-1.1038-1.2774-0.45889-2.5053-0.45889-1.2774 0-2.158 0.4961-0.88057 0.48369-0.88057 1.4511 0 0.85576 0.5333 1.2898 0.5209 0.43409 1.6867 0.70694 0.64492 0.14883 1.4387 0.29765 0.80615 0.14883 1.3395 0.27285 1.6247 0.37208 2.5053 1.2774 0.88057 0.91777 0.88057 2.4309z" style="font-variant-caps:normal;font-variant-east-asian:normal;font-variant-ligatures:normal;font-variant-numeric:normal"/>
   <path d="m18.675 147.03h-2.3192v-1.4759q-0.31006 0.21084-0.84336 0.59531-0.5209 0.37207-1.017 0.59532-0.58291 0.28525-1.3395 0.47129-0.75654 0.19843-1.7735 0.19843-1.8728 0-3.175-1.2402-1.3022-1.2402-1.3022-3.1626 0-1.5751 0.66973-2.5425 0.68213-0.97978 1.9348-1.5379 1.265-0.55811 3.0386-0.75654 1.7735-0.19844 3.8075-0.29766v-0.35967q0-0.79375-0.28525-1.3146-0.27285-0.52089-0.79375-0.81855-0.49609-0.28525-1.1906-0.38447-0.69453-0.0992-1.4511-0.0992-0.91777 0-2.0464 0.24805-1.1286 0.23564-2.3316 0.69453h-0.12402v-2.3688q0.68213-0.18604 1.972-0.40928 1.2898-0.22324 2.5425-0.22324 1.4635 0 2.5425 0.24805 1.0914 0.23564 1.8852 0.81855 0.78135 0.57051 1.1906 1.4759t0.40928 2.2448zm-2.3192-3.4106v-3.8571q-1.0666 0.062-2.5177 0.18603-1.4387 0.12403-2.282 0.35967-1.0046 0.28525-1.6247 0.89297-0.62012 0.59531-0.62012 1.6495 0 1.1906 0.71934 1.7983 0.71934 0.59531 2.1952 0.59531 1.2278 0 2.2448-0.47129 1.017-0.48369 1.8852-1.1534z" style="font-variant-caps:normal;font-variant-east-asian:normal;font-variant-ligatures:normal;font-variant-numeric:normal"/>
   <path d="m25.522 147.03h-2.3316v-19.298h2.3316z" style="font-variant-caps:normal;font-variant-east-asian:normal;font-variant-ligatures:normal;font-variant-numeric:normal"/>
   <path d="m32.64 130.86h-2.6293v-2.4184h2.6293zm-0.14883 16.173h-2.3316v-13.853h2.3316z" style="font-variant-caps:normal;font-variant-east-asian:normal;font-variant-ligatures:normal;font-variant-numeric:normal"/>
   <path d="m47.002 143.04q0 1.8976-1.5751 3.113-1.5627 1.2154-4.2788 1.2154-1.5379 0-2.8277-0.35966-1.2774-0.37207-2.1456-0.80616v-2.6169h0.12402q1.1038 0.83096 2.4557 1.327 1.3519 0.48369 2.5921 0.48369 1.5379 0 2.4061-0.49609 0.86816-0.4961 0.86816-1.5627 0-0.81855-0.47129-1.2402t-1.8107-0.71934q-0.49609-0.11162-1.3022-0.26045-0.79375-0.14883-1.4511-0.32246-1.8231-0.48369-2.5921-1.4139-0.75654-0.94257-0.75654-2.3068 0-0.85576 0.34727-1.6123 0.35967-0.75654 1.079-1.3518 0.69453-0.58291 1.7611-0.91778 1.079-0.34726 2.4061-0.34726 1.2402 0 2.5053 0.31006 1.2774 0.29765 2.1208 0.73174v2.4929h-0.12402q-0.89297-0.65733-2.1704-1.1038-1.2774-0.45889-2.5053-0.45889-1.2774 0-2.158 0.4961-0.88057 0.48369-0.88057 1.4511 0 0.85576 0.5333 1.2898 0.5209 0.43409 1.6867 0.70694 0.64492 0.14883 1.4387 0.29765 0.80615 0.14883 1.3395 0.27285 1.6247 0.37208 2.5053 1.2774 0.88057 0.91777 0.88057 2.4309z" style="font-variant-caps:normal;font-variant-east-asian:normal;font-variant-ligatures:normal;font-variant-numeric:normal"/>
   <path d="m62.53 140q0 1.7363-0.49609 3.1254-0.48369 1.3891-1.3146 2.3316-0.88057 0.97979-1.9348 1.4759-1.0542 0.48369-2.3192 0.48369-1.1782 0-2.0588-0.28525-0.88057-0.27285-1.7363-0.74414l-0.14883 0.64492h-2.1828v-19.298h2.3316v6.8957q0.97978-0.80616 2.0836-1.3146 1.1038-0.5209 2.4805-0.5209 2.4557 0 3.8695 1.8852 1.4263 1.8852 1.4263 5.3206zm-2.4061 0.062q0-2.4805-0.81855-3.7579-0.81856-1.2898-2.6417-1.2898-1.017 0-2.0588 0.44648-1.0418 0.43409-1.9348 1.1286v7.9375q0.99219 0.44648 1.6991 0.62011 0.71934 0.17364 1.6247 0.17364 1.9348 0 3.0262-1.265 1.1038-1.2774 1.1038-3.9936z" style="font-variant-caps:normal;font-variant-east-asian:normal;font-variant-ligatures:normal;font-variant-numeric:normal"/>
   <path d="m77.649 147.03h-2.3316v-1.5379q-1.1782 0.93018-2.2572 1.4263t-2.3812 0.49609q-2.1828 0-3.3982-1.327-1.2154-1.3394-1.2154-3.9191v-8.9917h2.3316v7.8879q0 1.0542 0.09922 1.8108 0.09922 0.74414 0.42168 1.2774 0.33486 0.5457 0.86816 0.79375 0.5333 0.24804 1.5503 0.24804 0.90537 0 1.972-0.47129 1.079-0.47128 2.0092-1.203v-10.344h2.3316z" style="font-variant-caps:normal;font-variant-east-asian:normal;font-variant-ligatures:normal;font-variant-numeric:normal"/>
   <path d="m90.882 135.72h-0.12402q-0.5209-0.12402-1.017-0.17363-0.48369-0.062-1.1534-0.062-1.079 0-2.0836 0.48369-1.0046 0.47129-1.9348 1.2278v9.8351h-2.3316v-13.853h2.3316v2.0464q1.3891-1.1162 2.4433-1.5751 1.0666-0.47129 2.1704-0.47129 0.60772 0 0.88057 0.0372 0.27285 0.0248 0.81855 0.11162z" style="font-variant-caps:normal;font-variant-east-asian:normal;font-variant-ligatures:normal;font-variant-numeric:normal"/>
   <path d="m105.06 133.18-8.0863 18.963h-2.4929l2.5797-5.7795-5.519-13.184h2.5301l4.254 10.269 4.2912-10.269z" style="font-variant-caps:normal;font-variant-east-asian:normal;font-variant-ligatures:normal;font-variant-numeric:normal"/>
   <path d="m109.56 147.03h-2.9642v-3.5347h2.9642z" style="font-variant-caps:normal;font-variant-east-asian:normal;font-variant-ligatures:normal;font-variant-numeric:normal"/>
   <path d="m126.23 147.03h-2.3316v-1.4511q-1.0046 0.86816-2.096 1.3518-1.0914 0.48369-2.3688 0.48369-2.4805 0-3.944-1.91-1.4511-1.91-1.4511-5.2958 0-1.7611 0.49609-3.1378 0.5085-1.3767 1.3643-2.344 0.84336-0.94258 1.9596-1.4387 1.1286-0.49609 2.3316-0.49609 1.0914 0 1.9348 0.23564 0.84336 0.22325 1.7735 0.70694v-6.0027h2.3316zm-2.3316-3.4106v-7.9499q-0.94257-0.42168-1.6867-0.58291-0.74415-0.16123-1.6247-0.16123-1.9596 0-3.051 1.3643-1.0914 1.3643-1.0914 3.8695 0 2.4681 0.84335 3.7579 0.84336 1.2774 2.7037 1.2774 0.99218 0 2.0092-0.43408 1.017-0.44648 1.8976-1.141z" style="font-variant-caps:normal;font-variant-east-asian:normal;font-variant-ligatures:normal;font-variant-numeric:normal"/>
   <path d="m142.8 133.18-5.6059 13.853h-2.344l-5.5686-13.853h2.5301l4.2912 11.026 4.254-11.026z" style="font-variant-caps:normal;font-variant-east-asian:normal;font-variant-ligatures:normal;font-variant-numeric:normal"/>
   <path d="m148.21 147.03h-2.3316v-19.298h2.3316z" style="font-variant-caps:normal;font-variant-east-asian:normal;font-variant-ligatures:normal;font-variant-numeric:normal"/>
   <path d="m165.01 139.94q0 1.6867-0.48369 3.0882-0.48369 1.3891-1.3643 2.3564-0.81855 0.91777-1.9348 1.4263-1.1038 0.49609-2.344 0.49609-1.079 0-1.9596-0.23564-0.86816-0.23565-1.7735-0.73174v5.8043h-2.3316v-18.963h2.3316v1.4511q0.93017-0.78135 2.0836-1.3022 1.1658-0.5333 2.4805-0.5333 2.5053 0 3.8943 1.8976 1.4015 1.8852 1.4015 5.2462zm-2.406 0.062q0-2.5053-0.85577-3.7455-0.85576-1.2402-2.6293-1.2402-1.0046 0-2.0216 0.43408-1.017 0.43408-1.9472 1.141v7.8507q0.99219 0.44648 1.6991 0.60772 0.71933 0.16123 1.6247 0.16123 1.9472 0 3.0386-1.3146t1.0914-3.8943z" style="font-variant-caps:normal;font-variant-east-asian:normal;font-variant-ligatures:normal;font-variant-numeric:normal"/>
   <path d="m177.29 135.72h-0.12402q-0.5209-0.12402-1.017-0.17363-0.48369-0.062-1.1534-0.062-1.079 0-2.0836 0.48369-1.0046 0.47129-1.9348 1.2278v9.8351h-2.3316v-13.853h2.3316v2.0464q1.3891-1.1162 2.4433-1.5751 1.0666-0.47129 2.1704-0.47129 0.60771 0 0.88056 0.0372 0.27286 0.0248 0.81856 0.11162z" style="font-variant-caps:normal;font-variant-east-asian:normal;font-variant-ligatures:normal;font-variant-numeric:normal"/>
   <path d="m200.38 138.81q0 1.7239-0.5085 3.3362-0.49609 1.6123-1.4263 2.9394h-5.457l-0.33486-1.4387q-0.91778 0.74414-1.7611 1.141-0.84336 0.39687-1.9348 0.39687-2.0836 0-3.3362-1.5751-1.2402-1.5751-1.2402-4.4028 0-2.8153 1.5255-4.4896 1.5255-1.6743 3.6463-1.6743 0.90537 0 1.5999 0.21084 0.69453 0.19843 1.5007 0.60771v-0.59531h1.972v10.443h3.0138q0.5209-0.93017 0.78134-2.3192 0.27286-1.4015 0.27286-2.5053 0-2.034-0.57051-3.6959-0.55811-1.6619-1.6495-2.8525-1.0914-1.1906-2.7037-1.8231-1.6123-0.64492-3.6587-0.64492-1.9844 0-3.6339 0.71933-1.6371 0.71934-2.8153 1.9348-1.1906 1.2154-1.8728 2.9146-0.66972 1.6867-0.66972 3.5967 0 2.0464 0.64492 3.7455 0.64492 1.6867 1.8231 2.8897 1.2278 1.2526 2.8774 1.8852 1.6495 0.64492 3.5967 0.64492 1.0666 0 2.1952-0.13643 1.141-0.13642 2.1828-0.43408v1.7611q-1.203 0.26044-2.2448 0.34726-1.0418 0.0992-2.1456 0.0992-2.3068 0-4.2788-0.79375-1.972-0.78135-3.3858-2.1952-1.4263-1.4263-2.22-3.423t-0.79375-4.4152q0-2.2944 0.83095-4.2664 0.83096-1.9844 2.2696-3.4354 1.4387-1.4511 3.4106-2.282 1.972-0.83096 4.2168-0.83096 2.4309 0 4.3408 0.76895 1.91 0.76894 3.2246 2.158 1.3146 1.3891 2.0092 3.3486 0.70694 1.9472 0.70694 4.3408zm-7.7515 3.1626v-6.4244q-0.78135-0.35967-1.4015-0.5085-0.62012-0.16123-1.3271-0.16123-1.5999 0-2.5053 1.1162-0.90537 1.1162-0.90537 3.175 0 2.0216 0.71934 3.0634 0.71933 1.0294 2.2448 1.0294 0.83096 0 1.6619-0.38447 0.83096-0.38448 1.5131-0.90538z" style="font-variant-caps:normal;font-variant-east-asian:normal;font-variant-ligatures:normal;font-variant-numeric:normal"/>
   <path d="m216.12 145.46q0 3.5223-1.5999 5.1718t-4.9237 1.6495q-1.1038 0-2.158-0.16123-1.0418-0.14883-2.0588-0.43408v-2.3812h0.12403q0.57051 0.22324 1.8107 0.5457 1.2402 0.33487 2.4805 0.33487 1.1906 0 1.972-0.28526 0.78135-0.28525 1.2154-0.79375 0.43408-0.48369 0.62012-1.1658 0.18603-0.68213 0.18603-1.5255v-1.265q-1.0542 0.84336-2.0216 1.265-0.95498 0.40928-2.4433 0.40928-2.4805 0-3.944-1.7859-1.4511-1.7983-1.4511-5.0602 0-1.7859 0.49609-3.0758 0.5085-1.3022 1.3767-2.2448 0.80616-0.88057 1.9596-1.3643 1.1534-0.49609 2.2944-0.49609 1.203 0 2.0092 0.24805 0.81855 0.23564 1.7239 0.73173l0.14883-0.59531h2.1828zm-2.3316-2.2324v-7.553q-0.93017-0.42168-1.7363-0.59531-0.79375-0.18603-1.5875-0.18603-1.9224 0-3.0262 1.2898t-1.1038 3.7455q0 2.3316 0.81856 3.5347 0.81855 1.203 2.7161 1.203 1.017 0 2.034-0.38447 1.0294-0.39687 1.8852-1.0542z" style="font-variant-caps:normal;font-variant-east-asian:normal;font-variant-ligatures:normal;font-variant-numeric:normal"/>
   <path d="m240.93 147.03h-2.3316v-7.8879q0-0.89297-0.0868-1.7239-0.0744-0.83095-0.33487-1.327-0.28525-0.5333-0.81855-0.80615t-1.5379-0.27285q-0.97979 0-1.9596 0.49609-0.97979 0.48369-1.9596 1.2402 0.0372 0.28525 0.062 0.66972 0.0248 0.37207 0.0248 0.74414v8.8677h-2.3316v-7.8879q0-0.91777-0.0868-1.7363-0.0744-0.83096-0.33487-1.327-0.28525-0.5333-0.81855-0.79375-0.5333-0.27285-1.5379-0.27285-0.95498 0-1.9224 0.47129-0.95499 0.47129-1.91 1.203v10.344h-2.3316v-13.853h2.3316v1.5379q1.0914-0.90537 2.1704-1.4139 1.0914-0.5085 2.3192-0.5085 1.4139 0 2.3937 0.59531 0.99218 0.59531 1.4759 1.6495 1.4139-1.1906 2.5797-1.7115 1.1658-0.5333 2.4929-0.5333 2.282 0 3.361 1.3891 1.0914 1.3767 1.0914 3.8571z" style="font-variant-caps:normal;font-variant-east-asian:normal;font-variant-ligatures:normal;font-variant-numeric:normal"/>
   <path d="m256.18 147.03h-2.3192v-1.4759q-0.31006 0.21084-0.84336 0.59531-0.5209 0.37207-1.017 0.59532-0.58291 0.28525-1.3395 0.47129-0.75654 0.19843-1.7735 0.19843-1.8728 0-3.175-1.2402-1.3022-1.2402-1.3022-3.1626 0-1.5751 0.66973-2.5425 0.68213-0.97978 1.9348-1.5379 1.265-0.55811 3.0386-0.75654 1.7735-0.19844 3.8075-0.29766v-0.35967q0-0.79375-0.28525-1.3146-0.27286-0.52089-0.79375-0.81855-0.4961-0.28525-1.1906-0.38447-0.69453-0.0992-1.4511-0.0992-0.91778 0-2.0464 0.24805-1.1286 0.23564-2.3316 0.69453h-0.12402v-2.3688q0.68212-0.18604 1.972-0.40928 1.2898-0.22324 2.5425-0.22324 1.4635 0 2.5425 0.24805 1.0914 0.23564 1.8852 0.81855 0.78134 0.57051 1.1906 1.4759t0.40928 2.2448zm-2.3192-3.4106v-3.8571q-1.0666 0.062-2.5177 0.18603-1.4387 0.12403-2.282 0.35967-1.0046 0.28525-1.6247 0.89297-0.62012 0.59531-0.62012 1.6495 0 1.1906 0.71933 1.7983 0.71934 0.59531 2.1952 0.59531 1.2278 0 2.2448-0.47129 1.017-0.48369 1.8852-1.1534z" style="font-variant-caps:normal;font-variant-east-asian:normal;font-variant-ligatures:normal;font-variant-numeric:normal"/>
   <path d="m263.18 130.86h-2.6293v-2.4184h2.6293zm-0.14882 16.173h-2.3316v-13.853h2.3316z" style="font-variant-caps:normal;font-variant-east-asian:normal;font-variant-ligatures:normal;font-variant-numeric:normal"/>
   <path d="m270 147.03h-2.3316v-19.298h2.3316z" style="font-variant-caps:normal;font-variant-east-asian:normal;font-variant-ligatures:normal;font-variant-numeric:normal"/>
   <path d="m278.42 147.03h-2.9642v-3.5347h2.9642z" style="font-variant-caps:normal;font-variant-east-asian:normal;font-variant-ligatures:normal;font-variant-numeric:normal"/>
   <path d="m294.09 146.16q-1.1658 0.5581-2.22 0.86816-1.0418 0.31006-2.22 0.31006-1.5007 0-2.7533-0.43408-1.2526-0.44649-2.1456-1.3395-0.90537-0.89297-1.4015-2.2572-0.49609-1.3643-0.49609-3.1874 0-3.3982 1.8604-5.333 1.8728-1.9348 4.9361-1.9348 1.1906 0 2.3316 0.33486 1.1534 0.33487 2.1084 0.81856v2.5921h-0.12402q-1.0666-0.83096-2.2076-1.2774-1.1286-0.44649-2.2076-0.44649-1.9844 0-3.1378 1.3395-1.141 1.327-1.141 3.9067 0 2.5053 1.1162 3.8571 1.1286 1.3395 3.1626 1.3395 0.70694 0 1.4387-0.18604 0.73174-0.18603 1.3146-0.48369 0.5085-0.26045 0.95498-0.5457 0.44649-0.29766 0.70694-0.5085h0.12402z" style="font-variant-caps:normal;font-variant-east-asian:normal;font-variant-ligatures:normal;font-variant-numeric:normal"/>
   <path d="m308.89 140.11q0 3.3858-1.7363 5.3454-1.7363 1.9596-4.6509 1.9596-2.9394 0-4.6757-1.9596-1.7239-1.9596-1.7239-5.3454t1.7239-5.3454q1.7363-1.972 4.6757-1.972 2.9146 0 4.6509 1.972 1.7363 1.9596 1.7363 5.3454zm-2.406 0q0-2.6913-1.0542-3.9936-1.0542-1.3146-2.927-1.3146-1.8976 0-2.9518 1.3146-1.0418 1.3022-1.0418 3.9936 0 2.6045 1.0542 3.9564 1.0542 1.3394 2.9394 1.3394 1.8604 0 2.9146-1.327 1.0666-1.3394 1.0666-3.9688z" style="font-variant-caps:normal;font-variant-east-asian:normal;font-variant-ligatures:normal;font-variant-numeric:normal"/>
   <path d="m332.72 147.03h-2.3316v-7.8879q0-0.89297-0.0868-1.7239-0.0744-0.83095-0.33486-1.327-0.28526-0.5333-0.81856-0.80615t-1.5379-0.27285q-0.97978 0-1.9596 0.49609-0.97978 0.48369-1.9596 1.2402 0.0372 0.28525 0.062 0.66972 0.0248 0.37207 0.0248 0.74414v8.8677h-2.3316v-7.8879q0-0.91777-0.0868-1.7363-0.0744-0.83096-0.33486-1.327-0.28526-0.5333-0.81856-0.79375-0.5333-0.27285-1.5379-0.27285-0.95498 0-1.9224 0.47129-0.95498 0.47129-1.91 1.203v10.344h-2.3316v-13.853h2.3316v1.5379q1.0914-0.90537 2.1704-1.4139 1.0914-0.5085 2.3192-0.5085 1.4139 0 2.3936 0.59531 0.99219 0.59531 1.4759 1.6495 1.4139-1.1906 2.5797-1.7115 1.1658-0.5333 2.4929-0.5333 2.282 0 3.361 1.3891 1.0914 1.3767 1.0914 3.8571z" style="font-variant-caps:normal;font-variant-east-asian:normal;font-variant-ligatures:normal;font-variant-numeric:normal"/>
  </g>
 </g>
</svg>
