<?xml version="1.0" encoding="UTF-8"?>
<svg version="1.1" viewBox="0 0 12.64 2.4763" xmlns="http://www.w3.org/2000/svg" xmlns:cc="http://creativecommons.org/ns#" xmlns:dc="http://purl.org/dc/elements/1.1/" xmlns:rdf="http://www.w3.org/1999/02/22-rdf-syntax-ns#">
 <metadata>
  <rdf:RDF>
   <cc:Work rdf:about="">
    <dc:format>image/svg+xml</dc:format>
    <dc:type rdf:resource="http://purl.org/dc/dcmitype/StillImage"/>
    <dc:title/>
   </cc:Work>
  </rdf:RDF>
 </metadata>
 <g transform="translate(-54.782 -180.19)">
  <g transform="matrix(.2684 0 0 .2684 39.232 134.2)" stroke-width=".26458">
   <g fill="#ffe6ff" style="font-variant-caps:normal;font-variant-east-asian:normal;font-variant-ligatures:normal;font-variant-numeric:normal" aria-label="Floriography">
    <path d="m64.157 175.72q1.0266 0.0318 1.0795 0.0318 0.0635 0 0.07408 0 0.254-0.0212 0.254 0.0741 0 0.14816-0.41275 0.14816l-0.89958-0.0212q-0.27517 0.0212-0.32808 0.0529-0.4445 0.55033-1.1959 1.5981-0.75142 1.0372-0.75142 1.2382 0 0.0847 0.1905-0.0423 0.11642 0 0.11642 0.0317 0 0.0529-0.23283 0.15875l-0.29633 0.15875q-0.20108 0.16934-0.46566 0.16934-0.254 0-0.23283-0.127 0.01058-0.254 0.75142-1.2806 0.74083-1.0372 1.5346-1.9685-0.762 0.13759-1.1642 0.13759-0.04233-0.0106-0.04233-0.0635 0-0.0635 0.127-0.16934 0.127-0.10583 0.26458-0.10583 0.14817 0 0.46566-0.0106h0.53975q0.35983-0.48684 1.5981-2.2437 0.508-0.73025 0.508-1.2065 0-0.74083-1.1007-0.74083-0.85725 0-2.0214 0.47625-1.1536 0.47625-2.1272 1.3017-0.68791 0.5715-1.0901 1.2382-0.40217 0.66675-0.40217 1.1853 0 0.83608 0.99483 0.83608 0.08467 0 0.17992-0.0106 0.64558-0.0529 1.2171-0.73025 0.58208-0.68791 0.58208-1.1536 0-0.0423-0.01058-0.0952 0.27517 0.0529 0.27517 0.32808 0 0.45508-0.59266 1.0689-0.80433 0.83608-1.8627 0.83608-0.58208 0-0.91016-0.30692-0.32808-0.30691-0.32808-0.83608 0-1.2488 1.524-2.5188 1.1007-0.89958 2.3389-1.3547 1.2382-0.46566 2.1484-0.46566 0.92075 0 1.3652 0.26458 0.45508 0.26458 0.45508 0.74083 0 0.46567-0.41275 1.0583-0.24342 0.39158-1.7039 2.3177z" style="font-variant-caps:normal;font-variant-east-asian:normal;font-variant-ligatures:normal;font-variant-numeric:normal"/>
    <path d="m65.671 177.84q0 0.3175 0.34925 0.3175t0.89958-0.37042q0.55033-0.37042 1.0689-1.0054 0.127-0.16934 0.20108-0.16934 0.07408 0 0.07408 0.0635t-0.43392 0.55034q-1.0583 1.1642-1.7674 1.1642-0.34925 0-0.59266-0.15875-0.24342-0.16933-0.24342-0.508 0-0.34925 0.17992-0.80433 0.30692-0.71966 0.98425-1.8097 1.2382-2.0108 1.7568-2.0108 0.10583 0 0.21167 0.0847 0.11642 0.0741 0.127 0.16934-0.24342 0.32808-0.94191 1.2594-0.68791 0.93133-0.9525 1.3441-0.26458 0.40216-0.40217 0.60325-0.127 0.20108-0.1905 0.3175-0.0635 0.10583-0.14817 0.28575-0.17992 0.35983-0.17992 0.67733z" style="font-variant-caps:normal;font-variant-east-asian:normal;font-variant-ligatures:normal;font-variant-numeric:normal"/>
    <path d="m70.592 176.13q0 0.37042-0.70908 1.2382-0.83608 1.0266-1.4287 1.0266h-0.16933q-0.27517 0-0.43392-0.28575-0.127-0.20108-0.127-0.4445 0-0.635 0.92075-1.778 0.93133-1.1536 1.5028-1.1536 0.53975 0 0.53975 0.57149 0 0.14817-0.05292 0.381 0.01058 0.0317 0.20108 0.0317 0.1905 0 0.58208-0.20108-0.01058 0.17992-0.83608 0.51858 0.01058 0.0423 0.01058 0.0953zm-0.68792-0.55033q-0.35983 0-1.0266 0.84666-0.65616 0.84667-0.65616 1.2488 0 0.40217 0.254 0.40217 0.45508 0 1.1536-0.8255t0.6985-1.1853q-0.16933-0.0952-0.42333-0.48683z" style="font-variant-caps:normal;font-variant-east-asian:normal;font-variant-ligatures:normal;font-variant-numeric:normal"/>
    <path d="m72.963 178.43q-0.79375 0-0.79375-0.87842 0-0.44449 0.23283-0.97366 0.23283-0.52916 0.508-0.889-0.05292 0.0106-0.13758 0.0106-0.254 0-0.42333-0.35984l-0.78316 1.016q-0.65616 0.81492-0.762 0.81492-0.05292 0-0.05292-0.0423 0-0.10583 0.17992-0.30691 0.92075-1.0689 1.3017-1.8098 0.24342-0.92074 0.61383-0.92074 0.24342 0 0.24342 0.21166 0 0.21167-0.26458 0.53975l-0.254 0.33866q0 0.22225 0.32808 0.22225 0.1905 0 0.42333-0.13758l0.27517-0.16933q0.02117-0.0106 0.10583-0.0106 0.08467 0 0.17992 0.10583 0.09525 0.10583 0.0635 0.1905l-0.73025 0.92074q-0.67733 0.86784-0.67733 1.3758 0 0.49742 0.46566 0.49742 0.48683 0 1.1959-0.51858 0.42333-0.30692 0.77258-0.68792 0.32808-0.381 0.35983-0.381 0.07408 0 0.07408 0.0847 0 0.0741-0.09525 0.17992l-0.33866 0.381q-0.28575 0.29633-0.635 0.57149-0.83608 0.62442-1.3758 0.62442z" style="font-variant-caps:normal;font-variant-east-asian:normal;font-variant-ligatures:normal;font-variant-numeric:normal"/>
    <path d="m77.27 174.06q0.15875 0 0.29633 0.10583 0.14817 0.0952 0.14817 0.23283 0 0.13758-0.13758 0.24342-0.127 0.0952-0.28575 0.0952-0.15875 0-0.29633-0.11642-0.127-0.11642-0.127-0.26458 0-0.29633 0.40216-0.29633zm-1.9156 4.4344q-0.53975 0-0.53975-0.6985 0-0.5715 0.62442-1.5769 0.62442-1.016 1.0054-1.0266 0.10583 0 0.23283 0.0847 0.13758 0.0847 0.13758 0.16934-0.05292 0.0741-0.127 0.16933-0.07408 0.0847-0.15875 0.1905-0.08467 0.10583-0.23283 0.30692-0.14817 0.19049-0.28575 0.37041-0.79375 1.0266-0.79375 1.4182 0 0.381 0.26458 0.381 0.22225 0 0.60325-0.24341 0.889-0.55034 1.4076-1.2065 0.1905-0.24342 0.254-0.24342 0.07408 0 0.07408 0.0847t-0.24342 0.33867q-0.24342 0.25399-0.39158 0.40216-0.13758 0.14817-0.1905 0.20108-0.05292 0.0423-0.20108 0.17992-0.13758 0.127-0.21167 0.17992-0.07408 0.0529-0.21166 0.15875-0.13758 0.10583-0.24342 0.15875-0.10583 0.0423-0.24342 0.10583-0.22225 0.0952-0.52916 0.0952z" style="font-variant-caps:normal;font-variant-east-asian:normal;font-variant-ligatures:normal;font-variant-numeric:normal"/>
    <path d="m80.127 176.13q0 0.37042-0.70908 1.2382-0.83608 1.0266-1.4287 1.0266h-0.16933q-0.27517 0-0.43392-0.28575-0.127-0.20108-0.127-0.4445 0-0.635 0.92075-1.778 0.93133-1.1536 1.5028-1.1536 0.53975 0 0.53975 0.57149 0 0.14817-0.05292 0.381 0.01058 0.0317 0.20108 0.0317 0.1905 0 0.58208-0.20108-0.01058 0.17992-0.83608 0.51858 0.01058 0.0423 0.01058 0.0953zm-0.68792-0.55033q-0.35983 0-1.0266 0.84666-0.65616 0.84667-0.65616 1.2488 0 0.40217 0.254 0.40217 0.45508 0 1.1536-0.8255 0.6985-0.8255 0.6985-1.1853-0.16933-0.0952-0.42333-0.48683z" style="font-variant-caps:normal;font-variant-east-asian:normal;font-variant-ligatures:normal;font-variant-numeric:normal"/>
    <path d="m83.874 175.15 0.14817-0.0318q0.13758 0 0.21167 0.0847 0.08467 0.0847 0.08467 0.13758 0 0.0423-0.01058 0.10584-0.01058 0.0529-0.30692 0.52916-0.37042 0.64558-0.61383 1.0901-0.85725 1.5981-1.3123 2.1908-0.97366 1.2912-1.8521 1.2912-0.30692 0-0.52916-0.26458-0.23283-0.254-0.24342-0.5715 0.03175-0.127 0.09525-0.127 0.03175 0 0.05292 0.0741 0.05292 0.27517 0.20108 0.42333 0.14817 0.14817 0.29633 0.14817 0.60325 0 1.2912-0.79375 0.45508-0.52916 1.0054-1.5452l0.52916-1.0478-0.79375 0.80433q-0.762 0.73025-1.0477 0.73025-0.27517 0-0.52916-0.1905-0.28575-0.21166-0.28575-0.56091 0-0.77258 1.0795-1.8415 1.0901-1.0689 1.9791-1.0689 0.35983 0 0.46566 0.23283 0.03175 0.0847 0.05292 0.14817 0.02117 0.0529 0.03175 0.0529zm-3.1644 2.6035q0 0.381 0.26458 0.381 0.61383 0 1.6722-1.3441l1.1218-1.5452q-0.0635-0.14816-0.26458-0.14816-0.65616 0-1.7251 1.016-1.0689 1.0054-1.0689 1.6404z" style="font-variant-caps:normal;font-variant-east-asian:normal;font-variant-ligatures:normal;font-variant-numeric:normal"/>
    <path d="m86.414 178.43q-0.79375 0-0.79375-0.87842 0-0.44449 0.23283-0.97366 0.23283-0.52916 0.508-0.889-0.05292 0.0106-0.13758 0.0106-0.254 0-0.42333-0.35984l-0.78316 1.016q-0.65616 0.81492-0.762 0.81492-0.05292 0-0.05292-0.0423 0-0.10583 0.17992-0.30691 0.92075-1.0689 1.3017-1.8098 0.24342-0.92074 0.61383-0.92074 0.24342 0 0.24342 0.21166 0 0.21167-0.26458 0.53975l-0.254 0.33866q0 0.22225 0.32808 0.22225 0.1905 0 0.42333-0.13758l0.27517-0.16933q0.02117-0.0106 0.10583-0.0106 0.08467 0 0.17992 0.10583 0.09525 0.10583 0.0635 0.1905l-0.73025 0.92074q-0.67733 0.86784-0.67733 1.3758 0 0.49742 0.46566 0.49742 0.48683 0 1.1959-0.51858 0.42333-0.30692 0.77258-0.68792 0.32808-0.381 0.35983-0.381 0.07408 0 0.07408 0.0847 0 0.0741-0.09525 0.17992l-0.33866 0.381q-0.28575 0.29633-0.635 0.57149-0.83608 0.62442-1.3758 0.62442z" style="font-variant-caps:normal;font-variant-east-asian:normal;font-variant-ligatures:normal;font-variant-numeric:normal"/>
    <path d="m91.949 175.21 0.14817-0.0318q0.11642 0 0.22225 0.0952 0.10583 0.0953 0.10583 0.14817 0 0.0529-0.65616 1.0266-0.65616 0.96308-0.65616 1.3441 0 0.0318 0.01058 0.0635 0.05292 0.24342 0.23283 0.24342 0.55033 0 2.0108-1.8203 0.03175-0.0423 0.07408-0.0423t0.04233 0.0847q0 0.0741-0.09525 0.20108-1.3547 1.8098-2.0637 1.8098-0.09525 0-0.17992-0.0317-0.46566-0.17992-0.46566-0.6985 0-0.17992 0.04233-0.35983l-0.65616 0.635q-0.62441 0.55033-0.91016 0.55033-0.27517 0-0.52916-0.17992-0.28575-0.21166-0.28575-0.56091 0-0.77258 1.0795-1.8415 1.0795-1.0795 1.9791-1.0795 0.34925 0 0.46566 0.24341 0.03175 0.0847 0.05292 0.14817 0.02117 0.0529 0.03175 0.0529zm-3.1644 2.6035q0 0.381 0.26458 0.381 0.61383 0 1.6722-1.3441l1.1218-1.5452q-0.08467-0.14816-0.27517-0.14816-0.64558 0-1.7145 1.0054-1.0689 0.99483-1.0689 1.651z" style="font-variant-caps:normal;font-variant-east-asian:normal;font-variant-ligatures:normal;font-variant-numeric:normal"/>
    <path d="m96.775 175.98q0 0.85724-0.98425 1.6298-0.97366 0.762-1.6933 0.762-0.47625 0-0.6985-0.0635-0.21167-0.0635-0.47625-0.381-0.17992 0.14817-0.48683 0.75142-0.30692 0.61383-0.30692 1.0477 0 0.20109 0.20108 0.52917 0.02117 0.0529-0.03175 0.0847-0.05292 0.0423-0.07408 0.0423-0.03175 0-0.05292-0.0106-0.4445-0.24342-0.4445-0.9525 0-0.6985 1.1642-2.4236 1.1747-1.7357 1.6192-1.8838 0.10583-0.0212 0.13758-0.0212 0.17992 0 0.17992 0.39158 0.10583-0.10583 0.43392-0.20108 0.40216-0.10584 0.5715-0.10584 0.381 0 0.65616 0.22225 0.28575 0.21167 0.28575 0.58209zm-0.53975-0.10584q0-0.40216-0.47625-0.40216-0.47625 0-0.86783 0.20108-0.17992 0.0847-0.99483 0.93133-0.81491 0.84666-0.81491 1.0901 0 0.1905 0.28575 0.28575 0.29633 0.0952 0.59266 0.0952 0.58208 0 1.4287-0.65617 0.84666-0.66674 0.84666-1.5452z" style="font-variant-caps:normal;font-variant-east-asian:normal;font-variant-ligatures:normal;font-variant-numeric:normal"/>
    <path d="m99.283 178.33q-0.62442 0-0.62442-0.73025 0-0.41275 0.28575-0.91016 0.29633-0.508 0.71966-1.1853-1.3547 0.67733-2.4553 2.0002-0.61383 0.92075-0.71966 0.92075-0.30692 0-0.30692-0.17992 0-0.0952 0.127-0.33866 1.0266-1.8309 1.5557-2.6776 1.2594-2.0214 1.778-2.1907 0.02117-0.0106 0.04233-0.0106 0.13758 0 0.1905 0.22224-0.03175 0.22225-1.1007 1.6087-1.1112 1.4076-1.2594 1.8415 0.39158-0.28575 1.3652-0.96308 1.0477-0.73025 1.3864-0.73025 0.33867 0 0.33867 0.26458 0 0.0423-0.0106 0.0635 0 0.0106-0.73025 0.99483-0.73025 0.98425-0.73025 1.4499 0 0.24341 0.17992 0.24341 0.5715-0.0212 1.7145-1.3758 0.0953-0.0952 0.13758-0.0952 0.0529 0 0.0529 0.0635 0 0.21167-1.0478 1.143-0.65616 0.5715-0.889 0.5715z" style="font-variant-caps:normal;font-variant-east-asian:normal;font-variant-ligatures:normal;font-variant-numeric:normal"/>
    <path d="m100.16 179.6q0.508 0.635 0.87842 0.635 0.60324 0 1.3017-0.96308 0.508-0.70908 0.99483-1.7886l0.40217-0.97366-1.5558 1.2171q-0.71966 0.56092-1.1536 0.56092-0.23283 0-0.37041-0.15875-0.13759-0.15875-0.13759-0.35984 0-0.45508 0.78317-1.4922 0.78316-1.0478 1.143-1.0478 0.35984 0 0.35984 0.24342 0 0.0952-0.94192 1.1007-0.93133 0.99483-0.93133 1.3441 0 0.13758 0.17992 0.13758 0.33866 0 1.3547-0.79375 1.0266-0.79374 1.5452-1.3123 0.11642-0.13759 0.32809-0.41275 0.20108-0.23284 0.44449-0.23284 0.24342 0 0.24342 0.23284 0 0.0423-0.47625 0.75141-0.47625 0.70908-0.49741 0.75142-0.32809 0.63499-1.0054 1.8521-1.0266 1.651-2.0532 1.651-0.33866 0-0.59266-0.29633-0.254-0.28575-0.24342-0.64559z" style="font-variant-caps:normal;font-variant-east-asian:normal;font-variant-ligatures:normal;font-variant-numeric:normal"/>
   </g>
   <g fill="#f26de7" style="font-variant-caps:normal;font-variant-east-asian:normal;font-variant-ligatures:normal;font-variant-numeric:normal" aria-label="Floriography">
    <path d="m63.651 175.74q1.0266 0.0318 1.0795 0.0318 0.0635 0 0.07408 0 0.254-0.0212 0.254 0.0741 0 0.14817-0.41275 0.14817l-0.89958-0.0212q-0.27517 0.0212-0.32808 0.0529-0.4445 0.55033-1.1959 1.5981-0.75141 1.0372-0.75141 1.2382 0 0.0847 0.1905-0.0423 0.11642 0 0.11642 0.0317 0 0.0529-0.23283 0.15875l-0.29633 0.15875q-0.20108 0.16933-0.46566 0.16933-0.254 0-0.23283-0.127 0.01058-0.254 0.75141-1.2806 0.74083-1.0372 1.5346-1.9685-0.762 0.13758-1.1642 0.13758-0.04233-0.0106-0.04233-0.0635 0-0.0635 0.127-0.16933 0.127-0.10583 0.26458-0.10583 0.14817 0 0.46566-0.0106h0.53975q0.35983-0.48683 1.5981-2.2437 0.508-0.73024 0.508-1.2065 0-0.74083-1.1007-0.74083-0.85725 0-2.0214 0.47625-1.1536 0.47624-2.1272 1.3017-0.68791 0.5715-1.0901 1.2382-0.40216 0.66675-0.40216 1.1853 0 0.83608 0.99483 0.83608 0.08467 0 0.17992-0.0106 0.64558-0.0529 1.2171-0.73024 0.58208-0.68792 0.58208-1.1536 0-0.0423-0.01058-0.0952 0.27517 0.0529 0.27517 0.32808 0 0.45508-0.59266 1.0689-0.80433 0.83608-1.8627 0.83608-0.58208 0-0.91016-0.30691-0.32808-0.30692-0.32808-0.83608 0-1.2488 1.524-2.5188 1.1007-0.89958 2.3389-1.3547 1.2382-0.46567 2.1484-0.46567 0.92075 0 1.3652 0.26459 0.45508 0.26458 0.45508 0.74083 0 0.46566-0.41275 1.0583-0.24342 0.39158-1.7039 2.3177z" style="font-variant-caps:normal;font-variant-east-asian:normal;font-variant-ligatures:normal;font-variant-numeric:normal"/>
    <path d="m65.164 177.86q0 0.3175 0.34925 0.3175t0.89958-0.37041q0.55033-0.37042 1.0689-1.0054 0.127-0.16933 0.20108-0.16933 0.07408 0 0.07408 0.0635t-0.43392 0.55033q-1.0583 1.1642-1.7674 1.1642-0.34925 0-0.59266-0.15875-0.24342-0.16934-0.24342-0.508 0-0.34925 0.17992-0.80433 0.30692-0.71967 0.98425-1.8098 1.2382-2.0108 1.7568-2.0108 0.10583 0 0.21167 0.0847 0.11642 0.0741 0.127 0.16933-0.24342 0.32809-0.94191 1.2594-0.68791 0.93133-0.9525 1.3441-0.26458 0.40216-0.40216 0.60324-0.127 0.20109-0.1905 0.3175-0.0635 0.10584-0.14817 0.28575-0.17992 0.35983-0.17992 0.67733z" style="font-variant-caps:normal;font-variant-east-asian:normal;font-variant-ligatures:normal;font-variant-numeric:normal"/>
    <path d="m70.085 176.15q0 0.37041-0.70908 1.2382-0.83608 1.0266-1.4287 1.0266h-0.16933q-0.27517 0-0.43392-0.28575-0.127-0.20109-0.127-0.4445 0-0.635 0.92075-1.778 0.93133-1.1536 1.5028-1.1536 0.53975 0 0.53975 0.5715 0 0.14817-0.05292 0.381 0.01058 0.0317 0.20108 0.0317 0.1905 0 0.58208-0.20108-0.01058 0.17991-0.83608 0.51858 0.01058 0.0423 0.01058 0.0952zm-0.68791-0.55033q-0.35983 0-1.0266 0.84666-0.65616 0.84667-0.65616 1.2488 0 0.40217 0.254 0.40217 0.45508 0 1.1536-0.8255t0.6985-1.1853q-0.16933-0.0952-0.42333-0.48683z" style="font-variant-caps:normal;font-variant-east-asian:normal;font-variant-ligatures:normal;font-variant-numeric:normal"/>
    <path d="m72.456 178.45q-0.79375 0-0.79375-0.87842 0-0.4445 0.23283-0.97366 0.23283-0.52917 0.508-0.889-0.05292 0.0106-0.13758 0.0106-0.254 0-0.42333-0.35983l-0.78316 1.016q-0.65616 0.81491-0.762 0.81491-0.05292 0-0.05292-0.0423 0-0.10583 0.17992-0.30692 0.92075-1.0689 1.3017-1.8097 0.24342-0.92075 0.61383-0.92075 0.24342 0 0.24342 0.21167 0 0.21166-0.26458 0.53975l-0.254 0.33866q0 0.22225 0.32808 0.22225 0.1905 0 0.42333-0.13758l0.27517-0.16933q0.02117-0.0106 0.10583-0.0106 0.08467 0 0.17992 0.10584 0.09525 0.10583 0.0635 0.19049l-0.73025 0.92075q-0.67733 0.86783-0.67733 1.3758 0 0.49742 0.46566 0.49742 0.48683 0 1.1959-0.51859 0.42333-0.30691 0.77258-0.68791 0.32808-0.381 0.35983-0.381 0.07408 0 0.07408 0.0847 0 0.0741-0.09525 0.17991l-0.33866 0.381q-0.28575 0.29633-0.635 0.5715-0.83608 0.62442-1.3758 0.62442z" style="font-variant-caps:normal;font-variant-east-asian:normal;font-variant-ligatures:normal;font-variant-numeric:normal"/>
    <path d="m76.763 174.07q0.15875 0 0.29633 0.10584 0.14817 0.0952 0.14817 0.23283 0 0.13758-0.13758 0.24341-0.127 0.0952-0.28575 0.0952-0.15875 0-0.29633-0.11641-0.127-0.11642-0.127-0.26459 0-0.29633 0.40217-0.29633zm-1.9156 4.4344q-0.53975 0-0.53975-0.6985 0-0.5715 0.62442-1.5769 0.62442-1.016 1.0054-1.0266 0.10583 0 0.23283 0.0847 0.13758 0.0847 0.13758 0.16933-0.05292 0.0741-0.127 0.16934-0.07408 0.0847-0.15875 0.1905-0.08467 0.10583-0.23283 0.30691-0.14817 0.1905-0.28575 0.37042-0.79375 1.0266-0.79375 1.4182 0 0.381 0.26458 0.381 0.22225 0 0.60325-0.24342 0.889-0.55033 1.4076-1.2065 0.1905-0.24342 0.254-0.24342 0.07408 0 0.07408 0.0847t-0.24342 0.33866q-0.24342 0.254-0.39158 0.40217-0.13758 0.14816-0.1905 0.20108-0.05292 0.0423-0.20108 0.17992-0.13758 0.127-0.21167 0.17991-0.07408 0.0529-0.21167 0.15875-0.13758 0.10584-0.24342 0.15875-0.10583 0.0423-0.24342 0.10584-0.22225 0.0952-0.52916 0.0952z" style="font-variant-caps:normal;font-variant-east-asian:normal;font-variant-ligatures:normal;font-variant-numeric:normal"/>
    <path d="m79.621 176.15q0 0.37041-0.70908 1.2382-0.83608 1.0266-1.4287 1.0266h-0.16933q-0.27516 0-0.43392-0.28575-0.127-0.20109-0.127-0.4445 0-0.635 0.92075-1.778 0.93133-1.1536 1.5028-1.1536 0.53975 0 0.53975 0.5715 0 0.14817-0.05292 0.381 0.01058 0.0317 0.20108 0.0317 0.1905 0 0.58208-0.20108-0.01058 0.17991-0.83608 0.51858 0.01058 0.0423 0.01058 0.0952zm-0.68792-0.55033q-0.35983 0-1.0266 0.84666-0.65616 0.84667-0.65616 1.2488 0 0.40217 0.254 0.40217 0.45508 0 1.1536-0.8255 0.6985-0.8255 0.6985-1.1853-0.16933-0.0952-0.42333-0.48683z" style="font-variant-caps:normal;font-variant-east-asian:normal;font-variant-ligatures:normal;font-variant-numeric:normal"/>
    <path d="m83.367 175.16 0.14817-0.0318q0.13758 0 0.21167 0.0847 0.08467 0.0847 0.08467 0.13758 0 0.0423-0.01058 0.10583-0.01058 0.0529-0.30692 0.52917-0.37042 0.64558-0.61383 1.0901-0.85725 1.5981-1.3123 2.1907-0.97366 1.2912-1.8521 1.2912-0.30692 0-0.52916-0.26459-0.23283-0.254-0.24342-0.5715 0.03175-0.127 0.09525-0.127 0.03175 0 0.05292 0.0741 0.05292 0.27516 0.20108 0.42333 0.14817 0.14817 0.29633 0.14817 0.60325 0 1.2912-0.79375 0.45508-0.52917 1.0054-1.5452l0.52916-1.0478-0.79375 0.80433q-0.762 0.73025-1.0477 0.73025-0.27517 0-0.52916-0.1905-0.28575-0.21167-0.28575-0.56092 0-0.77258 1.0795-1.8415 1.0901-1.0689 1.9791-1.0689 0.35983 0 0.46567 0.23283 0.03175 0.0847 0.05292 0.14817 0.02117 0.0529 0.03175 0.0529zm-3.1644 2.6035q0 0.381 0.26458 0.381 0.61383 0 1.6722-1.3441l1.1218-1.5452q-0.0635-0.14816-0.26458-0.14816-0.65616 0-1.7251 1.016-1.0689 1.0054-1.0689 1.6404z" style="font-variant-caps:normal;font-variant-east-asian:normal;font-variant-ligatures:normal;font-variant-numeric:normal"/>
    <path d="m85.907 178.45q-0.79375 0-0.79375-0.87842 0-0.4445 0.23283-0.97366 0.23283-0.52917 0.508-0.889-0.05292 0.0106-0.13758 0.0106-0.254 0-0.42333-0.35983l-0.78316 1.016q-0.65616 0.81491-0.762 0.81491-0.05292 0-0.05292-0.0423 0-0.10583 0.17992-0.30692 0.92075-1.0689 1.3017-1.8097 0.24342-0.92075 0.61383-0.92075 0.24342 0 0.24342 0.21167 0 0.21166-0.26458 0.53975l-0.254 0.33866q0 0.22225 0.32808 0.22225 0.1905 0 0.42333-0.13758l0.27517-0.16933q0.02117-0.0106 0.10583-0.0106 0.08467 0 0.17992 0.10584 0.09525 0.10583 0.0635 0.19049l-0.73025 0.92075q-0.67733 0.86783-0.67733 1.3758 0 0.49742 0.46566 0.49742 0.48683 0 1.1959-0.51859 0.42333-0.30691 0.77258-0.68791 0.32808-0.381 0.35983-0.381 0.07408 0 0.07408 0.0847 0 0.0741-0.09525 0.17991l-0.33866 0.381q-0.28575 0.29633-0.635 0.5715-0.83608 0.62442-1.3758 0.62442z" style="font-variant-caps:normal;font-variant-east-asian:normal;font-variant-ligatures:normal;font-variant-numeric:normal"/>
    <path d="m91.442 175.23 0.14817-0.0318q0.11642 0 0.22225 0.0953 0.10583 0.0952 0.10583 0.14817 0 0.0529-0.65616 1.0266-0.65616 0.96308-0.65616 1.3441 0 0.0318 0.01058 0.0635 0.05292 0.24341 0.23283 0.24341 0.55033 0 2.0108-1.8203 0.03175-0.0423 0.07408-0.0423t0.04233 0.0847q0 0.0741-0.09525 0.20108-1.3547 1.8098-2.0637 1.8098-0.09525 0-0.17992-0.0317-0.46566-0.17992-0.46566-0.6985 0-0.17992 0.04233-0.35983l-0.65616 0.63499q-0.62441 0.55034-0.91016 0.55034-0.27517 0-0.52916-0.17992-0.28575-0.21167-0.28575-0.56092 0-0.77258 1.0795-1.8415 1.0795-1.0795 1.9791-1.0795 0.34925 0 0.46566 0.24342 0.03175 0.0847 0.05292 0.14817 0.02117 0.0529 0.03175 0.0529zm-3.1644 2.6035q0 0.381 0.26458 0.381 0.61383 0 1.6722-1.3441l1.1218-1.5452q-0.08467-0.14816-0.27517-0.14816-0.64558 0-1.7145 1.0054-1.0689 0.99483-1.0689 1.651z" style="font-variant-caps:normal;font-variant-east-asian:normal;font-variant-ligatures:normal;font-variant-numeric:normal"/>
    <path d="m96.268 176q0 0.85725-0.98425 1.6298-0.97366 0.762-1.6933 0.762-0.47625 0-0.6985-0.0635-0.21167-0.0635-0.47625-0.381-0.17992 0.14817-0.48683 0.75141-0.30692 0.61384-0.30692 1.0478 0 0.20108 0.20108 0.52917 0.02117 0.0529-0.03175 0.0847-0.05292 0.0423-0.07408 0.0423-0.03175 0-0.05292-0.0106-0.4445-0.24341-0.4445-0.95249 0-0.6985 1.1642-2.4236 1.1747-1.7357 1.6192-1.8838 0.10583-0.0212 0.13758-0.0212 0.17992 0 0.17992 0.39158 0.10583-0.10584 0.43392-0.20108 0.40216-0.10584 0.5715-0.10584 0.381 0 0.65616 0.22225 0.28575 0.21167 0.28575 0.58208zm-0.53975-0.10583q0-0.40217-0.47625-0.40217-0.47625 0-0.86783 0.20109-0.17992 0.0847-0.99483 0.93133-0.81491 0.84666-0.81491 1.0901 0 0.1905 0.28575 0.28575 0.29633 0.0952 0.59266 0.0952 0.58208 0 1.4287-0.65617 0.84666-0.66675 0.84666-1.5452z" style="font-variant-caps:normal;font-variant-east-asian:normal;font-variant-ligatures:normal;font-variant-numeric:normal"/>
    <path d="m98.777 178.35q-0.62442 0-0.62442-0.73025 0-0.41275 0.28575-0.91017 0.29633-0.50799 0.71966-1.1853-1.3547 0.67734-2.4553 2.0002-0.61383 0.92075-0.71966 0.92075-0.30692 0-0.30692-0.17992 0-0.0952 0.127-0.33867 1.0266-1.8309 1.5557-2.6776 1.2594-2.0214 1.778-2.1907 0.02117-0.0106 0.04233-0.0106 0.13758 0 0.1905 0.22225-0.03175 0.22225-1.1007 1.6087-1.1112 1.4076-1.2594 1.8415 0.39158-0.28575 1.3652-0.96308 1.0477-0.73025 1.3864-0.73025 0.33867 0 0.33867 0.26458 0 0.0423-0.0106 0.0635 0 0.0106-0.73025 0.99483-0.73025 0.98425-0.73025 1.4499 0 0.24342 0.17992 0.24342 0.5715-0.0212 1.7145-1.3758 0.0952-0.0952 0.13758-0.0952 0.0529 0 0.0529 0.0635 0 0.21167-1.0477 1.143-0.65616 0.5715-0.889 0.5715z" style="font-variant-caps:normal;font-variant-east-asian:normal;font-variant-ligatures:normal;font-variant-numeric:normal"/>
    <path d="m99.655 179.62q0.508 0.635 0.87841 0.635 0.60325 0 1.3018-0.96308 0.50799-0.70908 0.99483-1.7886l0.40216-0.97366-1.5557 1.2171q-0.71967 0.56091-1.1536 0.56091-0.23284 0-0.37042-0.15875t-0.13758-0.35983q0-0.45508 0.78316-1.4922 0.78317-1.0478 1.143-1.0478t0.35983 0.24341q0 0.0952-0.94191 1.1007-0.93133 0.99483-0.93133 1.3441 0 0.13758 0.17991 0.13758 0.33867 0 1.3547-0.79375 1.0266-0.79375 1.5452-1.3123 0.11641-0.13758 0.32808-0.41275 0.20108-0.23283 0.4445-0.23283 0.24341 0 0.24341 0.23283 0 0.0423-0.47624 0.75142-0.47625 0.70908-0.49742 0.75141-0.32808 0.635-1.0054 1.8521-1.0266 1.651-2.0532 1.651-0.33867 0-0.59267-0.29634-0.254-0.28575-0.24342-0.64558z" style="font-variant-caps:normal;font-variant-east-asian:normal;font-variant-ligatures:normal;font-variant-numeric:normal"/>
   </g>
  </g>
 </g>
</svg>
