<?xml version="1.0" encoding="UTF-8"?>
<svg width="69.103" height="18.55" version="1.1" viewBox="0 0 69.103 18.55" xmlns="http://www.w3.org/2000/svg" xmlns:cc="http://creativecommons.org/ns#" xmlns:dc="http://purl.org/dc/elements/1.1/" xmlns:rdf="http://www.w3.org/1999/02/22-rdf-syntax-ns#">
 <metadata>
  <rdf:RDF>
   <cc:Work rdf:about="">
    <dc:format>image/svg+xml</dc:format>
    <dc:type rdf:resource="http://purl.org/dc/dcmitype/StillImage"/>
    <dc:title/>
   </cc:Work>
  </rdf:RDF>
 </metadata>
 <g transform="translate(-3.8256 -7.9125)">
  <g transform="translate(-1.6442 1.0207)" fill="#fff" stroke-width=".080024">
   <path d="m61.417 19.126c0-3.191 0.0099-4.4964 0.02203-2.9009 0.01212 1.5955 0.01212 4.2063 0 5.8018s-0.02203 0.29009-0.02203-2.9009zm-33.562 2.5141c0.0038-0.09322 0.0228-0.11219 0.04835-0.04835 0.02312 0.05777 0.02027 0.12679-0.0063 0.15338-0.02659 0.02659-0.04551-0.02067-0.04203-0.10503zm22.438-4.1546c1.4e-5 -2.2887 0.01026-3.2135 0.02276-2.055 0.0125 1.1584 0.01249 3.031-2.4e-5 4.1613-0.01252 1.1303-0.02275 0.18245-0.02273-2.1063zm20.455 2.074c0.0038-0.09323 0.0228-0.11219 0.04835-0.04835 0.02312 0.05777 0.02027 0.12679-0.0063 0.15338-0.02659 0.02659-0.04551-0.02067-0.04203-0.10503zm0-1.1203c0.0038-0.09322 0.0228-0.11219 0.04835-0.04835 0.02312 0.05777 0.02027 0.12679-0.0063 0.15338-0.02659 0.02659-0.04551-0.02067-0.04203-0.10503zm-57.244-0.25281c0.3191-0.01519 0.84126-0.01519 1.1604 0 0.3191 0.01519 0.05802 0.02762-0.58018 0.02762-0.6382 0-0.89928-0.01243-0.58018-0.02762zm27.568-0.64064c0.69321-0.01332 1.8276-0.01332 2.5208 0 0.69321 0.01332 0.12604 0.02422-1.2604 0.02422-1.3864 0-1.9536-0.0109-1.2604-0.02422zm-19.796-6.002c-0.09954-0.12692-0.09671-0.12976 0.03021-0.03021 0.1333 0.10454 0.17569 0.17026 0.10983 0.17026-0.01662 0-0.07964-0.06302-0.14004-0.14004z"/>
   <path d="m35.97 16.325c0-4.7314 0.0096-6.667 0.02141-4.3013 0.01178 2.3657 0.01178 6.2369 0 8.6026s-0.02141 0.43013-0.02141-4.3013zm-8.0853 2.6008c-3e-5 -1.4524 0.01078-2.0579 0.02404-1.3455 0.01325 0.71242 0.01327 1.9008 5.5e-5 2.6408-0.01322 0.74002-0.02406 0.15713-0.02409-1.2953zm-0.0018-7.4023c0-0.94629 0.01158-1.3334 0.02572-0.86026 0.01415 0.47314 0.01415 1.2474 0 1.7205s-0.02572 0.08603-0.02572-0.86026zm41.804 1.2257c0.05777-0.02312 0.12679-0.02027 0.15338 0.0063 0.02659 0.02659-0.02067 0.0455-0.10503 0.04203-0.09323-0.0038-0.11219-0.0228-0.04835-0.04835zm0.56017 0c0.05777-0.02312 0.12679-0.02027 0.15338 0.0063 0.02659 0.02659-0.02067 0.0455-0.10503 0.04203-0.09322-0.0038-0.11219-0.0228-0.04835-0.04835zm-38.606-1.9459c0-0.55017 0.01279-0.77524 0.02841-0.50015 0.01563 0.27508 0.01563 0.72522 0 1.0003s-0.02841 0.05002-0.02841-0.50015z"/>
   <path d="m32.071 25.391c0.09954-0.01914 0.24359-0.01841 0.3201 0.0016 0.07651 0.02003-0.0049 0.03569-0.18099 0.0348-0.17605-8.89e-4 -0.23865-0.01728-0.13911-0.03642zm-10.084-0.32319c0.45114-0.01426 1.1894-0.01426 1.6405 0s0.08202 0.02594-0.82025 0.02594c-0.90228 0-1.2714-0.01167-0.82025-0.02594zm9.6612-6.3023 0.0018-2.4808 2.4409-0.0064-2.3986 0.05064-0.0459 4.9174 0.0018-2.4808zm22.486-1.7605c1.7e-5 -2.0246 0.0104-2.8414 0.02307-1.8151 0.01267 1.0263 0.01266 2.6828-3.1e-5 3.6811-0.01269 0.99829-0.02306 0.15856-0.02304-1.8661zm-44.826-0.80024c4.802e-4 -0.26408 0.015389-0.36247 0.033199-0.21863s0.017443 0.3599-8.162e-4 0.48015c-0.01826 0.12025-0.032832 0.0026-0.032383-0.26151zm17.283 0.06081c0.25468-0.01593 0.65081-0.01578 0.88027 3.21e-4 0.22946 0.01611 0.02108 0.02914-0.46306 0.02896-0.48415-1.6e-4 -0.67189-0.01336-0.41721-0.02929zm7.7724-1.5413c0-0.77024 0.012-1.0853 0.02667-0.70021s0.01467 1.0153 0 1.4004-0.02667 0.07002-0.02667-0.70022zm-2.7253-2.2807c-2.4e-4 -0.39612 0.01329-0.56826 0.03007-0.38253 0.01678 0.18573 0.01698 0.50983 4.8e-4 0.72022-0.01657 0.21039-0.03031 0.05843-0.03055-0.33769zm38.283 0.30711c0.05502-0.0222 0.14504-0.0222 0.20006 0 0.05502 0.0222 0.01 0.04036-0.10003 0.04036-0.11003 0-0.15505-0.01816-0.10003-0.04036zm-59.358-1.0976c0-0.01662 0.06302-0.07964 0.14004-0.14004 0.12692-0.09954 0.12975-0.09671 0.03021 0.03021-0.10454 0.1333-0.17026 0.17569-0.17026 0.10983zm14.337-1.5703c0-0.11003 0.01816-0.15505 0.04036-0.10003 0.0222 0.055017 0.0222 0.14504 0 0.20006-0.0222 0.05502-0.04036 0.01-0.04036-0.10003z"/>
   <path d="m37.076 25.068c0.47554-0.01417 1.2318-0.01412 1.6805 8e-5 0.44875 0.01424 0.05967 0.02583-0.86461 0.02577-0.92428-6.5e-5 -1.2914-0.01171-0.8159-0.02589zm8.8784 4.4e-5c0.47314-0.01415 1.2474-0.01415 1.7205 0s0.08603 0.02572-0.86026 0.02572c-0.94629 0-1.3334-0.01158-0.86026-0.02572zm17.925 2.4e-4c0.3411-0.015 0.89928-0.015 1.2404 0 0.3411 0.015 0.06202 0.02727-0.62019 0.02727-0.68221 0-0.9613-0.01227-0.62019-0.02727zm-15.186-8.7432c0-4.7314 0.0096-6.667 0.02141-4.3013 0.01178 2.3657 0.01178 6.2369 0 8.6026s-0.02141 0.43013-0.02141-4.3013zm5.4157 4.4814c0-0.11003 0.01816-0.15505 0.04036-0.10003 0.0222 0.05502 0.0222 0.14504 0 0.20006-0.0222 0.05502-0.04036 0.01-0.04036-0.10003zm-41.432-4.3213c0-0.81425 0.01188-1.1474 0.02641-0.74023 0.01452 0.40712 0.01452 1.0733 0 1.4805s-0.02641 0.07402-0.02641-0.74023zm16.232-6.7818c0.47314-0.014148 1.2474-0.014148 1.7205 0 0.47314 0.014147 0.08603 0.025724-0.86026 0.025724-0.94629 0-1.3334-0.011576-0.86026-0.025724zm8.1669-2.1607c0.47554-0.014172 1.2318-0.014119 1.6805 1.2e-4 0.44875 0.014238 0.05967 0.025833-0.86461 0.025768-0.92428-6.53e-5 -1.2914-0.011714-0.8159-0.025887zm8.8784 4.42e-5c0.47314-0.014148 1.2474-0.014148 1.7205 0s0.08603 0.025724-0.86026 0.025724c-0.94629 0-1.3334-0.011576-0.86026-0.025724zm18.166 0c0.47314-0.014148 1.2474-0.014148 1.7205 0s0.08603 0.025724-0.86026 0.025724c-0.94629 0-1.3334-0.011576-0.86026-0.025724z"/>
   <path d="m69.606 25.393c0.05777-0.02312 0.12679-0.02027 0.15338 0.0063 0.02659 0.02659-0.02067 0.04551-0.10503 0.04203-0.09322-0.0038-0.11219-0.0228-0.04835-0.04835zm0.48015 0c0.05777-0.02312 0.12679-0.02027 0.15338 0.0063 0.02659 0.02659-0.02067 0.04551-0.10503 0.04203-0.09322-0.0038-0.11219-0.0228-0.04835-0.04835zm-10.288-0.32457c0.25308-0.01588 0.6672-0.01588 0.92028 0 0.25308 0.01588 0.04601 0.02887-0.46014 0.02887-0.50616 0-0.71322-0.01299-0.46014-0.02887zm3.2996-8.7436c0-4.6874 0.0096-6.605 0.02142-4.2613 0.01178 2.3437 0.01178 6.1789 0 8.5226s-0.02142 0.42613-0.02142-4.2613zm-38.412 2.6808c-7e-6 -3.125 0.0099-4.415 0.02207-2.8668 0.01214 1.5482 0.01215 4.105 1.3e-5 5.6817-0.01214 1.5767-0.02207 0.30997-0.02208-2.815zm30.832 3.348c0.05502-0.0222 0.14504-0.0222 0.20006 0 0.05502 0.0222 0.01 0.04036-0.10003 0.04036-0.11003 0-0.15505-0.01816-0.10003-0.04036zm-41.173-7.5292c0.82525-0.01301 2.1757-0.01301 3.0009 0s0.15005 0.02365-1.5005 0.02365-2.3257-0.01064-1.5005-0.02365zm36.967-1.6803c0.4707-0.01412 1.2629-0.01417 1.7605-8e-5 0.49759 0.01406 0.11247 0.02562-0.85583 0.02568-0.9683 6.1e-5 -1.3754-0.01145-0.90471-0.02557zm7.3667-4.5e-5c0.47314-0.01415 1.2474-0.01415 1.7205 0s0.08603 0.02572-0.86026 0.02572c-0.94629 0-1.3334-0.01158-0.86026-0.02572zm-44.449-6.2369c0.05777-0.023117 0.12679-0.020274 0.15338 0.00632 0.02659 0.026592-0.02067 0.045505-0.10503 0.042031-0.09323-0.00384-0.11219-0.022802-0.04835-0.048348z"/>
   <path d="m69.846 25.393c0.05777-0.02312 0.12679-0.02027 0.15338 0.0063 0.02659 0.02659-0.02067 0.04551-0.10503 0.04203-0.09323-0.0038-0.11219-0.0228-0.04835-0.04835zm-10.728-0.31843c0.05502-0.0222 0.14504-0.0222 0.20006 0 0.05502 0.0222 0.01 0.04036-0.10003 0.04036-0.11003 0-0.15505-0.01816-0.10003-0.04036zm13.904-0.74725c0.07966-0.08803 0.16285-0.16005 0.18486-0.16005 0.02201 0-0.02517 0.07202-0.10483 0.16005-0.07966 0.08803-0.16285 0.16005-0.18486 0.16005-0.02201 0 0.02517-0.07202 0.10483-0.16005zm-54.019-4.8415c-1.1e-5 -2.4648 0.01014-3.4846 0.02256-2.2664s0.01243 3.2349 2.1e-5 4.4814c-0.01241 1.2465-0.02257 0.24976-0.02258-2.215zm49.883 2.8662c0.05777-0.02312 0.12679-0.02027 0.15338 0.0063 0.02659 0.02659-0.02067 0.0455-0.10503 0.04203-0.09322-0.0038-0.11219-0.0228-0.04835-0.04835zm-55.661-0.48094c0.07786-0.02029 0.1859-0.01895 0.24007 3e-3 0.05418 0.02192-0.0095 0.03852-0.14157 0.03689-0.13204-0.0016-0.17637-0.01957-0.09851-0.03986zm61.284-2.3119c0.0038-0.09323 0.0228-0.11219 0.04835-0.04835 0.02312 0.05777 0.02027 0.12679-0.0063 0.15338-0.02659 0.02659-0.04551-0.02067-0.04203-0.10503zm-33.392-5.4549c0.71799-0.01328 1.8703-0.01325 2.5608 5.8e-5 0.69044 0.01331 0.10299 0.02417-1.3054 0.02414-1.4084-3.2e-5 -1.9733-0.01092-1.2553-0.0242z"/>
   <path d="m12.399 25.364c-4.2876-0.41107-6.4953-2.885-6.8806-7.71-0.13797-1.728 0.024529-3.821 0.41181-5.3039 0.45948-1.7594 1.3063-3.1547 2.4311-4.0057 1.717-1.2991 4.2112-1.7184 7.4568-1.2537 1.1522 0.16499 2.3651 0.55075 2.451 0.77955 0.04592 0.12224-0.62276 2.9247-0.72138 3.0233-0.04851 0.04851-0.36588-0.0013-0.86955-0.13638-0.66522-0.17846-1.0161-0.21931-2.1751-0.25328-1.5555-0.04559-2.0909 0.0256-2.8785 0.38272-0.62937 0.28537-1.2817 0.92469-1.6129 1.5808-0.94972 1.8814-0.97178 5.4666-0.045662 7.4218 0.37631 0.79444 0.81064 1.2562 1.5029 1.5979 0.84234 0.41579 1.4047 0.45933 3.6759 0.28456 0.03301-0.0025 0.06002-0.81393 0.06002-1.8031v-1.7985l-2.4407-0.04418v-3.201l6.2019-0.0419v9.2029l-0.62019 0.31149c-1.6249 0.81609-3.8104 1.1713-5.9468 0.96646zm41.418 0.0026c-1.953-0.20897-3.0083-1.1038-3.3581-2.8474-0.10816-0.53915-0.12358-1.2673-0.10487-4.9534l0.02193-4.3213h3.6811l0.04001 4.0813c0.03802 3.8782 0.04798 4.0971 0.20006 4.3991 0.08803 0.17483 0.28377 0.38911 0.43499 0.47619 0.54231 0.31227 2.0001 0.14287 2.6963-0.31334l0.1897-0.1243 0.0012-4.1794c6.41e-4 -2.2987 0.03025-4.2252 0.06571-4.281 0.04967-0.07826 0.47684-0.09664 1.8593-0.08002l1.7949 0.02158v11.764l-2.4431 0.0442-0.07884-0.20736c-0.04336-0.11405-0.07884-0.29804-0.07884-0.40888 0-0.11084-0.02701-0.18922-0.06002-0.17419-0.03301 0.01503-0.3121 0.15782-0.62019 0.31731-0.73477 0.38036-1.7083 0.68243-2.5324 0.78576-0.72454 0.09085-0.87373 0.09099-1.7089 0.0016zm-23.041-0.12351c-1.3459-0.26727-2.1376-0.94405-2.6229-2.242-0.16965-0.45379-0.17831-0.60599-0.20546-3.6123l-0.02834-3.1385-1.9506-0.04486v-2.4808l1.9606-0.47078v-3.4904h3.6811v3.361l1.2604 0.0012c0.69321 6.41e-4 1.3062 0.03033 1.3623 0.06589 0.07782 0.04939 0.09672 0.41308 0.08002 1.5392l-0.02187 1.4746-1.3435 0.02196-1.3435 0.02195 0.02311 2.6331c0.02207 2.5155 0.03047 2.643 0.1881 2.854 0.36312 0.48606 0.52978 0.5486 1.5409 0.57822 0.59274 0.01737 0.95612 0.06127 0.99352 0.12004 0.03243 0.05096 0.05951 0.64056 0.06018 1.3102 0.0014 1.4134 0.0599 1.3185-0.92912 1.5077-0.74215 0.142-1.9636 0.13769-2.705-0.0095zm37.479-0.0357c-0.72199-0.17764-1.3752-0.45614-1.8727-0.79845-0.2543-0.17497-0.37212-0.21858-0.39294-0.14545-0.01636 0.05744-0.061 0.24848-0.09921 0.42454l-0.06947 0.3201h-2.6408v-17.365h3.6811l0.02098 2.9818 0.02098 2.9818 0.3944-0.19986c0.82279-0.41694 1.545-0.56211 2.7646-0.55571 1.2024 0.0063 1.6482 0.10856 2.4037 0.5513 0.48049 0.28158 1.1133 1.0075 1.3977 1.6034 0.67932 1.4234 0.87999 3.8167 0.51688 6.1648-0.22485 1.454-0.60609 2.367-1.2861 3.0799-0.47407 0.49701-1.0213 0.80856-1.7486 0.99546-0.68207 0.17528-2.3043 0.1552-3.0905-0.03827zm1.4937-2.9691c0.30333-0.09179 0.62624-0.41855 0.7819-0.79123 0.35481-0.84948 0.38915-3.4791 0.05671-4.3426-0.22266-0.5783-0.50696-0.92013-0.92213-1.1087-0.58651-0.26641-1.7367-0.15197-2.5276 0.25148l-0.3187 0.16259 0.02105 2.7338 0.02105 2.7338 0.48015 0.19327c0.75647 0.3045 1.731 0.37236 2.4075 0.16764zm-48.778 2.6566c-0.1154-0.21563-0.11618-11.4-8.16e-4 -11.616 0.07794-0.14563 0.1833-0.15472 1.7805-0.15356 0.93374 6.4e-4 1.743 0.02995 1.7983 0.06507 0.07954 0.0505 0.09626 1.2921 0.08002 5.9406l-0.02053 5.8768-1.7769 0.02153c-1.6926 0.02051-1.7809 0.01411-1.8606-0.13478zm15.078 0.05474c-0.02128-0.05585-0.02941-3.9727-0.01807-8.7042l0.02061-8.6026h3.6811l0.04001 3.241 0.04001 3.241 5.0816 0.04226 0.0012-3.1821c6.4e-4 -1.7502 0.03024-3.2278 0.06571-3.2837 0.04967-0.078258 0.47684-0.096643 1.8593-0.080025l1.7949 0.021575v17.365h-3.6811l-0.0416-7.4823h-5.1184l-0.0416 7.4823-1.8225 0.02151c-1.4146 0.0167-1.8311-0.0012-1.8612-0.08003zm-13.911-12.916c-0.87001-0.26721-1.4999-1.28-1.3762-2.2127 0.14535-1.0957 0.95694-1.8126 2.0561-1.8163 1.9152-0.00634 2.797 2.3257 1.3669 3.6148-0.34106 0.30745-0.97398 0.54906-1.4123 0.53911-0.13506-0.0031-0.42057-0.05933-0.63447-0.12502z"/>
  </g>
 </g>
</svg>
