<?xml version="1.0" encoding="UTF-8"?>
<svg width="69.358" height="16.908" version="1.1" viewBox="0 0 69.358 16.908" xmlns="http://www.w3.org/2000/svg" xmlns:cc="http://creativecommons.org/ns#" xmlns:dc="http://purl.org/dc/elements/1.1/" xmlns:rdf="http://www.w3.org/1999/02/22-rdf-syntax-ns#">
 <metadata>
  <rdf:RDF>
   <cc:Work rdf:about="">
    <dc:format>image/svg+xml</dc:format>
    <dc:type rdf:resource="http://purl.org/dc/dcmitype/StillImage"/>
    <dc:title/>
   </cc:Work>
  </rdf:RDF>
 </metadata>
 <g transform="translate(-100.53 -56.865)">
  <g transform="matrix(.77499 0 0 .77499 100.5 56.867)" fill="#2867b2" stroke-width=".040502">
   <path d="m70.014 21.678c2.5878-0.0058 6.8344-0.0058 9.4368-1e-6 2.6025 0.0058 0.48522 0.01046-4.705 0.01046-5.1903 0-7.3196-0.0047-4.7318-0.01046zm15.586-10.844c0-5.1457 0.0047-7.2568 0.01047-4.6913 0.0058 2.5655 0.0058 6.7756 4e-6 9.3558-0.0058 2.5802-0.01047 0.48116-0.01047-4.6646zm2.138 8.7388c0.10648-0.0084 0.27051-0.0083 0.36451 2.43e-4 0.094 0.0085 0.0069 0.01534-0.1936 0.01522-0.20048-1.21e-4 -0.27739-0.0071-0.17091-0.01544zm-44.652-0.84838c0.02924-0.0117 0.06417-0.01026 0.07763 0.0032s-0.01047 0.02303-0.05316 0.02127c-0.04718-0.0019-0.05678-0.01154-0.02447-0.02447zm11.215-0.0016c0.0719-0.0089 0.19948-0.0091 0.28351-3.24e-4 0.08403 0.0088 0.0252 0.01609-0.13073 0.01627-0.15593 1.62e-4 -0.22468-7e-3 -0.15278-0.01594zm-49.503-0.24407 4.7584-0.01054 0.011338-1.5389 0.011338-1.5389-7.33e-4 1.5492-7.299e-4 1.5492-9.5381 5.03e-4 4.7584-0.01054zm23.681-2.5e-5c0.43846-0.0065 1.1675-0.0065 1.6201-2e-5 0.45257 0.0065 0.09383 0.01187-0.79721 0.01188-0.89103 1.1e-5 -1.2613-0.0053-0.82285-0.01186zm6.911-3.3e-5c0.56402-0.0064 1.4753-0.0063 2.0251 1.3e-5 0.54978 0.0064 0.08831 0.01156-1.0255 0.01155-1.1138-7e-6 -1.5636-0.0052-0.99959-0.01157zm-16.134-2.663c4e-6 -1.4702 0.0051-2.0658 0.01125-1.3235 0.0062 0.74229 0.0062 1.9452-7e-6 2.6731-0.0062 0.72791-0.01124 0.12058-0.01124-1.3496zm38.474 1.9846c0-0.37869 6e-3 -0.53906 0.01353-0.35638 0.0075 0.18268 0.0075 0.49252 0 0.68852-0.0074 0.19601-0.01357 0.04654-0.01361-0.33215zm9.3994-4.4957c0-2.8513 0.0048-4.0118 0.01073-2.5788 0.0059 1.433 0.0059 3.7658-4e-6 5.1842-0.0059 1.4184-0.01072 0.24594-0.01072-2.6054zm3.1996 0c0-2.8513 0.0048-4.0118 0.01073-2.5788 0.0059 1.433 0.0059 3.7658-4e-6 5.1842-0.0059 1.4184-0.01072 0.24594-0.01072-2.6054zm-15.279 2.5833c0.06126-0.0093 0.1615-0.0093 0.22276 0 0.06126 0.0093 0.01114 0.01687-0.11138 0.01687-0.12252 0-0.17264-0.0076-0.11138-0.01687zm-51.67-6.5727c0-3.3525 0.00479-4.724 0.010642-3.0477 0.00585 1.6763 0.00585 4.4192 0 6.0955s-0.010642 0.30477-0.010642-3.0477zm45.993 4.5125c0.0019-0.04718 0.01154-0.05678 0.02447-0.02447 0.0117 0.02924 0.01026 0.06417-0.0032 0.07763s-0.02303-0.01046-0.02127-0.05316zm-11.583-0.16201c0.0019-0.04718 0.01154-0.05678 0.02447-0.02447 0.0117 0.02924 0.01026 0.06417-0.0032 0.07763s-0.02303-0.01046-0.02127-0.05316zm19.935-0.38139c0-0.10024 0.0079-0.14125 0.01755-0.09113 0.0097 0.05012 0.0097 0.13214 0 0.18226s-0.01755 0.0091-0.01755-0.09113zm-19.931-0.40502c0-0.05569 0.0092-0.07847 0.02043-0.05063 0.01124 0.02784 0.01124 0.07341 0 0.10125-0.01123 0.02785-0.02043 0.0051-0.02043-0.05063zm11.58 0.01688c0.0019-0.04718 0.01154-0.05678 0.02447-0.02447 0.0117 0.02924 0.01026 0.06417-0.0032 0.07763s-0.02303-0.01046-0.02127-0.05316zm-0.93153-0.1215c0.0019-0.04718 0.01154-0.05678 0.02447-0.02447 0.0117 0.02924 0.01026 0.06417-0.0032 0.07763s-0.02303-0.01046-0.02128-0.05316zm30.7-0.081c0.0019-0.04718 0.01154-0.05678 0.02447-0.02447 0.0117 0.02924 0.01026 0.06417-0.0032 0.07763s-0.02303-0.01046-0.02127-0.05316zm-53.093-0.52315c8.26e-4 -0.06683 0.0099-0.08926 0.02017-0.04986 0.01027 0.03941 0.0096 0.09408-0.0015 0.1215-0.0111 0.02742-0.0195-0.0048-0.01867-0.07165zm16.021-0.0911c0.58474-0.0063 1.5416-0.0063 2.1263 0s0.10632 0.0115-1.0632 0.0115c-1.1695 0-1.6479-0.0052-1.0632-0.0115zm40.275-0.09116c0-0.05569 0.0092-0.07847 0.02043-0.05063s0.01123 0.07341 0 0.10125c-0.01123 0.02784-0.02043 0.0051-0.02043-0.05063zm-61.374-1.2832c0.02924-0.0117 0.06417-0.01026 0.07763 0.0032s-0.01046 0.02303-0.05316 0.02127c-0.04718-0.0019-0.05678-0.01154-0.02447-0.02447zm0.32148 8.42e-4c0.02784-0.01124 0.07341-0.01124 0.10125 0 0.02785 0.01124 0.0051 0.02043-0.05063 0.02043-0.05569 0-0.07847-0.0092-0.05063-0.02043zm33.819-0.081c0.02784-0.01123 0.07341-0.01123 0.10125 0 0.02784 0.01124 0.0051 0.02043-0.05063 0.02043-0.05569 0-0.07847-0.0092-0.05063-0.02043zm20.318-1.7957c0-0.38983 0.0061-0.5493 0.0135-0.35439s0.0074 0.51386 0 0.70878-0.0135 0.035439-0.0135-0.35439zm-63.597-0.71884c0.43846-0.00653 1.1675-0.00654 1.6201-1.98e-5 0.45257 0.00652 0.09383 0.011869-0.79721 0.011879-0.89103 1.1e-5 -1.2613-0.00533-0.82285-0.011859zm23.673-1.86e-5c0.53864-0.00638 1.4317-0.00638 1.9846-1.38e-5 0.55287 0.00637 0.11216 0.011586-0.97935 0.011594-1.0915 7.2e-6 -1.5439-0.0052-1.0052-0.01158zm-13.725-0.24034c0.02924-0.0117 0.06417-0.010261 0.07763 0.0032 0.01346 0.013458-0.01046 0.023031-0.05316 0.021272-0.04718-0.00194-0.05678-0.01154-0.02447-0.024469zm0.7265 8.425e-4c0.02784-0.011236 0.07341-0.011236 0.10125 0 0.02785 0.011235 0.0051 0.020428-0.05063 0.020428-0.05569 0-0.07847-0.00919-0.05063-0.020428zm55.831-0.00219c0.06126-0.00928 0.1615-0.00928 0.22276 0 0.06126 0.00928 0.01114 0.016873-0.11138 0.016873-0.12252 0-0.17264-0.00759-0.11138-0.016873zm-35.416-0.039156c0.02924-0.0117 0.06417-0.010261 0.07763 0.0032 0.01346 0.013458-0.01047 0.023031-0.05316 0.021272-0.04718-0.00194-0.05678-0.01154-0.02447-0.024469zm11.115-0.041844c0.06126-0.00928 0.1615-0.00928 0.22276 0 0.06126 0.00928 0.01114 0.016873-0.11138 0.016873-0.12252 0-0.17264-0.00759-0.11138-0.016873zm-39.529-2.9276c0-0.10024 0.0079-0.14125 0.01755-0.091128 0.0097 0.050121 0.0097 0.13214 0 0.18226-0.0097 0.050121-0.01755 0.00911-0.01755-0.091129zm-3.734-0.18563c0.0019-0.047182 0.01154-0.056779 0.02447-0.02447 0.0117 0.029237 0.01026 0.064169-0.0032 0.077628-0.01346 0.013458-0.02303-0.010463-0.02127-0.053158z"/>
   <path d="m86.992 21.395c-0.05038-0.06424-0.04895-0.06567 0.01529-0.01529 0.06746 0.05291 0.08892 0.08617 0.05558 0.08617-0.0084 0-0.0403-0.03189-0.07088-0.07088zm0.54972-0.26456c-0.01096-0.02856-0.01451-0.38852-0.0079-0.7999l0.01205-0.74798 0.0092 0.77696 0.0092 0.77696 0.22276 0.03374-0.11265 0.0061c-0.06195 0.0033-0.12162-0.0173-0.13258-0.04586zm1.0054 0.02386c0.03941-0.01027 0.09408-0.0096 0.1215 0.0015 0.02742 0.0111-0.0048 0.0195-0.07165 0.01867-0.06683-8.26e-4 -0.08926-0.0099-0.04986-0.02017zm-0.61842-0.66046-0.14176-0.02984 0.12924-0.0053c0.07108-0.0029 0.1405 0.01289 0.15427 0.03517 0.01377 0.02228 0.0194 0.0381 0.01251 0.03517-0.0069-0.0029-0.0763-0.01876-0.15427-0.03517zm-44.683-1.7701c0.05012-0.0097 0.13214-0.0097 0.18226 0 0.05012 0.0097 0.0091 0.01755-0.09113 0.01755-0.10024 0-0.14125-0.0079-0.09113-0.01755zm0.52699-8.1e-5c0.05038-0.0097 0.12328-0.0093 0.162 8.18e-4 0.03872 0.01014-0.0025 0.01806-0.0916 0.01761s-0.12079-0.0087-0.0704-0.01843zm24.159-0.24469c0.43995-0.0065 1.1599-0.0065 1.5998 0 0.43995 0.0065 0.07999 0.01189-0.7999 0.01189s-1.2399-0.0053-0.7999-0.01189zm4.4232-0.02028c-0.0106-0.02784-0.01451-2.3653-0.0087-5.1943l0.01057-5.1437 0.01 5.1736 0.01 5.1736 3.1794 0.02216-1.591 0.0096c-1.2427 0.0075-1.5952-0.0014-1.6102-0.04099zm7.603 0.02031c0.43846-0.0065 1.1675-0.0065 1.6201-1.9e-5 0.45257 0.0065 0.09383 0.01187-0.79721 0.01188-0.89103 1.1e-5 -1.2613-0.0053-0.82285-0.01186zm-57.095-2.744c4e-6 -1.5148 0.0051-2.1285 0.01122-1.364 0.0062 0.76457 0.0062 2.0039-7e-6 2.7541-0.0062 0.75018-0.01121 0.12462-0.01121-1.3901zm3.1997-0.36451c4e-6 -1.7152 5e-3 -2.411 0.0111-1.5462s0.0061 2.2682-6e-6 3.1186c-0.0061 0.8504-0.0111 0.1428-0.01109-1.5724zm34.62-4.5053-0.01002-7.6239-3.2199-0.022136 1.6112-0.00965c1.2589-0.00754 1.6154 0.00142 1.6304 0.04098 0.01059 0.027845 0.01452 3.4679 0.0087 7.6447l-0.0105 7.594zm-17.374 5.428c0.06157-0.0093 0.15269-0.0091 0.20251 5.51e-4 0.04982 0.0096-5.67e-4 0.01723-0.11193 0.01693-0.11138-3.24e-4 -0.15214-0.0082-0.09057-0.01748zm11.565-0.40362c0.02924-0.0117 0.06417-0.01026 0.07763 0.0032s-0.01047 0.02303-0.05316 0.02127c-0.04718-0.0019-0.05678-0.01154-0.02447-0.02447zm0.52652 0c0.02924-0.0117 0.06417-0.01026 0.07763 0.0032s-0.01047 0.02303-0.05316 0.02127c-0.04719-0.0019-0.05678-0.01154-0.02447-0.02447zm-2.1015-0.69123-0.09819-0.11138 0.11138 0.09819c0.06126 0.054 0.11138 0.10412 0.11138 0.11138 0 0.03177-0.0328 0.0059-0.12457-0.09819zm-10.416-0.93152c1.0303-6e-3 2.7161-6e-3 3.7464 0s0.18732 0.01094-1.8732 0.01094c-2.0605 0-2.9034-0.0049-1.8732-0.01094zm6.5014-0.65816c0-0.10024 0.0079-0.14125 0.01755-0.09113 0.0097 0.05012 0.0097 0.13214 0 0.18226s-0.01755 0.0091-0.01755-0.09113zm-11.58-0.32401c0-0.18934 7e-3 -0.2668 0.0155-0.17213 0.0085 0.09467 0.0085 0.24959 0 0.34426-0.0085 0.09467-0.0155 0.01721-0.0155-0.17213zm19.916 0.21938c0.0019-0.04718 0.01154-0.05678 0.02447-0.02447 0.0117 0.02924 0.01026 0.06417-0.0032 0.07763s-0.02303-0.01046-0.02128-0.05316zm-5.1353-0.23963c4.05e-4 -0.11138 0.0082-0.15214 0.01748-0.09057 0.0093 0.06156 0.0091 0.15269-5.67e-4 0.20251-0.0096 0.04982-0.01723-5.59e-4 -0.01693-0.11194zm-3.2002-0.14176c0-0.10024 0.0079-0.14125 0.01755-0.09113 0.0097 0.05012 0.0097 0.13214 0 0.18226s-0.01755 0.0091-0.01755-0.09113zm-0.93043-0.081c0-0.12252 0.0076-0.17264 0.01687-0.11138 0.0093 0.06126 0.0093 0.1615 0 0.22276-0.0093 0.06126-0.01687 0.01114-0.01687-0.11138zm-29.204 0c0-0.07797 0.0083-0.10986 0.01852-0.07088 0.01019 0.03898 0.01019 0.10277 0 0.14176-0.01019 0.03898-0.01852 0.0071-0.01852-0.07088zm38.473 0c0-0.05569 0.0092-0.07847 0.02043-0.05063s0.01123 0.07341 0 0.10125c-0.01124 0.02784-0.02043 0.0051-0.02043-0.05063zm21.43-0.10125c4.05e-4 -0.11138 0.0082-0.15214 0.01748-0.09057 0.0093 0.06156 0.0091 0.15269-5.67e-4 0.20251-0.0096 0.04982-0.01723-5.59e-4 -0.01693-0.11194zm-3.5725-0.16538c0.0019-0.04718 0.01154-0.05678 0.02447-0.02447 0.0117 0.02924 0.01026 0.06417-0.0032 0.07763s-0.02303-0.01046-0.02128-0.05316zm-30.332-0.78641c0-0.05569 0.0092-0.07847 0.02043-0.05063 0.01124 0.02784 0.01124 0.07341 0 0.10125-0.01123 0.02784-0.02043 0.0051-0.02043-0.05063zm37.099-0.16201c0-0.05569 0.0092-0.07847 0.02043-0.05063 0.01123 0.02785 0.01123 0.07341 0 0.10125-0.01123 0.02785-0.02043 0.0051-0.02043-0.05063zm-56.341-0.18563c0.0019-0.04718 0.01154-0.05678 0.02447-0.02447 0.0117 0.02924 0.01026 0.06417-0.0032 0.07763s-0.02303-0.01046-0.02127-0.05316zm30.978-0.33076-0.13958-0.15188 0.15188 0.13958c0.14137 0.12991 0.1705 0.16419 0.13958 0.16419-0.0068 0-0.07511-0.06835-0.15188-0.15188zm20.406-0.6065c0.0728-9e-3 0.18215-0.0088 0.24301 4.13e-4 0.06086 0.0092 0.0013 0.01662-0.13236 0.01639-0.13365-2.43e-4 -0.18345-0.0078-0.11065-0.0168zm-22.439-0.07847c0.02784-0.01124 0.07341-0.01124 0.10125 0 0.02784 0.01124 0.0051 0.02043-0.05063 0.02043-0.05569 0-0.07847-0.0092-0.05063-0.02043zm0.32401 0c0.02784-0.01124 0.07341-0.01124 0.10125 0 0.02784 0.01124 0.0051 0.02043-0.05063 0.02043-0.05569 0-0.07847-0.0092-0.05063-0.02043zm-8.3155-1.5224-0.11896-0.13163 0.13163 0.11896c0.1227 0.11088 0.15025 0.1443 0.11896 0.1443-7e-3 0-0.0662-0.059233-0.13163-0.13163zm-27.275-0.25314c0.05232-0.055689 0.10424-0.10125 0.11537-0.10125 0.01114 0-0.02256 0.045564-0.07487 0.10125-0.05232 0.055689-0.10424 0.10125-0.11537 0.10125-0.01114 0 0.02255-0.045564 0.07487-0.10125zm37.441-0.030376-0.11896-0.13163 0.13163 0.11896c0.1227 0.11088 0.15025 0.1443 0.11896 0.1443-7e-3 0-0.0662-0.059233-0.13163-0.13163zm-35.101-0.95112c0.09526-0.00856 0.24107-0.00844 0.32401 2.835e-4 0.08295 0.0087 5e-3 0.015703-0.1732 0.015556-0.17821-1.62e-4 -0.24607-0.00727-0.15081-0.015824zm56.137 0.00204c0.02924-0.0117 0.06417-0.010261 0.07763 0.0032 0.01346 0.013458-0.01047 0.023031-0.05316 0.021272-0.04718-0.00194-0.05678-0.011541-0.02447-0.024469zm0.54424-2.43e-4c0.03898-0.010187 0.10277-0.010187 0.14176 0 0.03898 0.010187 0.0071 0.018523-0.07088 0.018523-0.07797 0-0.10986-0.00834-0.07088-0.018523zm-35.659-0.040248c0.02924-0.0117 0.06417-0.010261 0.07763 0.0032 0.01346 0.013458-0.01047 0.023031-0.05316 0.021272-0.04718-0.00194-0.05678-0.01154-0.02447-0.024469zm1.0125 0c0.02924-0.0117 0.06417-0.010261 0.07763 0.0032 0.01346 0.013458-0.01047 0.023031-0.05316 0.021272-0.04718-0.00194-0.05678-0.01154-0.02447-0.024469zm10.692 0c0.02924-0.0117 0.06417-0.010261 0.07763 0.0032 0.01346 0.013458-0.01047 0.023031-0.05316 0.021272-0.04718-0.00194-0.05678-0.01154-0.02447-0.024469zm-42.286-1.1332c0.02784-0.011235 0.07341-0.011235 0.10125 0 0.02785 0.011235 0.0051 0.020429-0.05063 0.020429-0.05569 0-0.07847-0.00919-0.05063-0.020429zm0.28351 0c0.02784-0.011235 0.07341-0.011235 0.10125 0 0.02785 0.011235 0.0051 0.020429-0.05063 0.020429-0.05569 0-0.07847-0.00919-0.05063-0.020429zm57.239-0.47449c0-0.00841 0.0319-0.040305 0.07088-0.070878 0.06424-0.050379 0.06567-0.048946 0.01529 0.015292-0.05291 0.067465-0.08617 0.08892-0.08617 0.055586zm-59.204-1.3618c0-0.077965 0.0083-0.10986 0.01852-0.070878 0.01019 0.038983 0.01019 0.10277 0 0.14176-0.01019 0.038983-0.01852 0.00709-0.01852-0.070877zm56.612-1.3163c0.05232-0.055689 0.10424-0.10125 0.11537-0.10125 0.01114 0-0.02255 0.045564-0.07487 0.10125-0.05232 0.05569-0.10424 0.10125-0.11537 0.10125-0.01114 0 0.02256-0.045564 0.07487-0.10125zm-56.074-0.020251c0.04032-0.044552 0.08242-0.081003 0.09356-0.081003s-0.01274 0.036451-0.05306 0.081003-0.08242 0.081003-0.09356 0.081003 0.01274-0.036451 0.05306-0.081003zm-10.46-0.31384c0.46222-0.0065 1.2186-0.0065 1.6808 0 0.46222 0.0065 0.084041 0.011815-0.84041 0.011815-0.92445 0-1.3026-0.00532-0.84041-0.011815zm27.619 1.34e-5c0.43846-0.00653 1.1675-0.00654 1.6201-1.99e-5 0.45257 0.00652 0.09383 0.011868-0.79721 0.011879-0.89103 1.1e-5 -1.2613-0.00533-0.82285-0.011859zm35.857-2.7238c0.04032-0.044552 0.08242-0.081003 0.09356-0.081003s-0.01274 0.036451-0.05306 0.081003c-0.04032 0.044552-0.08242 0.081003-0.09356 0.081003s0.01274-0.036451 0.05306-0.081003zm19.818-0.47318c0.02924-0.0117 0.06417-0.010261 0.07763 0.0031975 0.01346 0.013458-0.01047 0.023031-0.05316 0.021272-0.04718-0.0019434-0.05678-0.011541-0.02447-0.02447z"/>
   <path d="m87.116 21.273-0.09819-0.11138 0.11138 0.09819c0.1041 0.09177 0.12995 0.12457 0.09819 0.12457-0.0073 0-0.05738-0.05012-0.11138-0.11138zm1.8256 0.05559c0-0.0084 0.03189-0.04031 0.07088-0.07088 0.06424-0.05038 0.06567-0.04895 0.01529 0.01529-0.05291 0.06747-0.08617 0.08892-0.08617 0.05559zm-31.794-3.6451c0-0.0084 0.03189-0.04031 0.07088-0.07088 0.06424-0.05038 0.06567-0.04895 0.01529 0.01529-0.05291 0.06746-0.08617 0.08892-0.08617 0.05559zm0.20251-0.20251c0-0.0084 0.03189-0.04031 0.07088-0.07088 0.06424-0.05038 0.06567-0.04895 0.01529 0.01529-0.05291 0.06747-0.08617 0.08892-0.08617 0.05559zm-17.947-0.29859c-0.05038-0.06424-0.04895-0.06567 0.01529-0.01529 0.03898 0.03057 0.07088 0.06247 0.07088 0.07088 0 0.03334-0.03326 0.01188-0.08617-0.05559zm-0.22144-0.22276-0.07716-0.09113 0.09113 0.07715c0.05012 0.04244 0.09113 0.08344 0.09113 0.09113 0 0.03241-0.0326 0.0085-0.1051-0.07716zm2.4706-1.377-0.07716-0.09113 0.09113 0.07716c0.08564 0.07251 0.10956 0.1051 0.07715 0.1051-0.0077 0-0.0487-0.04101-0.09113-0.09113zm11.648-4.2628c0.07557-0.07797 0.14651-0.14176 0.15764-0.14176 0.01114 0-0.04158 0.06379-0.11714 0.14176-0.07557 0.07797-0.14651 0.14176-0.15764 0.14176-0.01114 0 0.04158-0.06379 0.11714-0.14176zm-33.454-0.16201c0.05232-0.05569 0.10424-0.10125 0.11537-0.10125 0.01114 0-0.02256 0.04556-0.07487 0.10125-0.05232 0.05569-0.10424 0.10125-0.11537 0.10125-0.01114 0 0.02255-0.04556 0.07487-0.10125zm31.146-2.0656c0.05232-0.055689 0.10424-0.10125 0.11537-0.10125 0.01114 0-0.02255 0.045564-0.07487 0.10125-0.05232 0.055689-0.10424 0.10125-0.11537 0.10125-0.01114 0 0.02256-0.045564 0.07487-0.10125zm-25.967-0.21263c-0.05038-0.064238-0.04895-0.06567 0.01529-0.015292 0.06746 0.05291 0.08892 0.086169 0.05558 0.086169-0.0084 0-0.04031-0.031895-0.07088-0.070878zm-11.092-2.7035c0.05232-0.055689 0.10424-0.10125 0.11537-0.10125 0.01114 0-0.02256 0.045564-0.07487 0.10125-0.05232 0.05569-0.10424 0.10125-0.11537 0.10125-0.01114 0 0.02255-0.045564 0.07487-0.10125zm53.459-0.010125-0.09819-0.11138 0.11138 0.098188c0.06126 0.054004 0.11138 0.10412 0.11138 0.11138 0 0.031764-0.0328 0.00591-0.12457-0.098188zm17.719-5.6905-0.07716-0.091128 0.09113 0.077155c0.05012 0.042435 0.09113 0.083443 0.09113 0.091128 0 0.032411-0.0326 0.008483-0.1051-0.077155z"/>
   <path d="m87.715 21.789c-0.51484-0.12998-0.92684-0.54046-1.0656-1.0616-0.07802-0.29309-0.07188-0.50402 0.02347-0.80633 0.36966-1.172 1.9375-1.4055 2.6104-0.38885 0.62942 0.95095 0.0084 2.2188-1.1163 2.2792-0.16472 0.0088-0.36811-0.0013-0.45199-0.02243zm0.9156-0.2389c0.24368-0.11797 0.5156-0.39018 0.63795-0.63863 0.07919-0.16082 0.09598-0.25829 0.09633-0.55928 4.05e-4 -0.31721-0.01353-0.39079-0.10716-0.56702-0.12955-0.24383-0.39272-0.50389-0.64094-0.63337-0.15192-0.07925-0.24294-0.09506-0.54677-0.09499-0.3158 8.1e-5 -0.39158 0.01438-0.56702 0.10706-0.74454 0.39329-0.97148 1.2817-0.50178 1.9644 0.1371 0.19927 0.41851 0.40628 0.65959 0.48521 0.24913 0.08157 0.73616 0.04975 0.9698-0.06335zm-1.0669-1.1777v-0.76953h0.38606c0.48384 0 0.63946 0.05718 0.70623 0.25948 0.02647 0.0802 0.03624 0.19994 0.02171 0.26608-0.02996 0.13642-0.2311 0.32497-0.34667 0.32497-0.06426 0-0.04029 0.05688 0.1451 0.34426l0.22208 0.34426-0.11162-7.93e-4c-0.0958-6.81e-4 -0.14216-0.04946-0.32719-0.34426-0.20224-0.32222-0.22416-0.34347-0.35439-0.34347h-0.13882v0.34426c0 0.34021-0.0012 0.34426-0.10125 0.34426h-0.10125v-0.76953zm0.86075-0.20777c0.05176-0.06949 0.06989-0.13627 0.05215-0.19214-0.05339-0.16822-0.13494-0.20761-0.42978-0.20761h-0.28062v0.53007l0.28946-0.0119c0.25853-0.01063 0.29793-0.02328 0.36879-0.11841zm-23.424 1.4272c-0.53624-0.17198-0.92504-0.60785-1.0444-1.1708-0.05886-0.27768-0.06526-18.807-0.0066-19.116 0.12253-0.64612 0.64732-1.1557 1.299-1.2615 0.37529-0.060888 18.686-0.059708 19.017 0.001225 0.51351 0.094719 0.96112 0.44152 1.1842 0.91747l0.10919 0.23299 0.01054 9.5567c0.0095 8.604 0.0042 9.579-0.05338 9.7811-0.12454 0.43728-0.45963 0.82206-0.89002 1.022l-0.20118 0.09346-9.5988 0.0081c-9.1312 0.0077-9.6099 0.0046-9.8253-0.0645zm5.3499-8.2667v-5.1842h-3.2401v10.368h3.2401zm5.225 2.42c0-1.5365 0.01792-2.9171 0.03993-3.1085 0.12746-1.1082 0.54295-1.6859 1.3398-1.8631 0.13282-0.02953 0.39984-0.04376 0.64853-0.03455 0.36117 0.01337 0.45631 0.03207 0.6532 0.1284 0.29099 0.14237 0.56719 0.44558 0.68186 0.74853 0.20141 0.53213 0.20775 0.63913 0.22904 3.8659l0.01998 3.0275h3.1916v-3.3112c0-3.8897-0.0209-4.2056-0.34022-5.1423-0.23315-0.68395-0.67447-1.2765-1.2112-1.6262-0.91087-0.59345-2.6174-0.74638-3.6619-0.32814-0.59071 0.23653-1.1438 0.66762-1.5047 1.1727l-0.18749 0.26244-0.02216-1.3957h-3.1167v5.1572c0 2.8365 0.01215 5.1693 0.027 5.1842s0.74388 0.027 1.6201 0.027h1.5931l4.05e-4 -2.7642zm-6.3732-9.0782c0.53243-0.14176 0.97753-0.51576 1.219-1.0243 0.13042-0.27464 0.15099-0.3598 0.16517-0.6839 0.024832-0.56776-0.12176-0.98196-0.48822-1.3795-0.62029-0.67294-1.7176-0.78201-2.4492-0.24345-0.2943 0.21665-0.45984 0.42197-0.63013 0.78149-0.12361 0.261-0.13129 0.30355-0.1305 0.72284 9.72e-4 0.52072 0.07564 0.75869 0.35867 1.1431 0.42894 0.58267 1.2527 0.87072 1.9551 0.68367zm-26.109 12.042c-2.4154-0.15414-4.3379-1.5692-5.0171-3.6929-0.17719-0.55403-0.24781-1.0475-0.24781-1.7315 0-1.3541 0.33919-2.3834 1.1144-3.3819 0.29703-0.38256 0.53452-0.61065 0.97875-0.94003 1.355-1.0047 3.396-1.3932 5.0561-0.96238 1.7432 0.45235 2.9369 1.8061 3.3409 3.7886 0.08187 0.40176 0.1604 1.4223 0.16105 2.093l4.05e-4 0.37464h-7.4523v0.09339c0 0.16614 0.16456 0.58653 0.32949 0.8417 0.31822 0.49234 0.81593 0.86197 1.3918 1.0337 0.29362 0.08753 0.94789 0.09793 1.2758 0.02027 0.41461-0.09819 0.93237-0.38008 1.2598-0.68591 0.1655-0.15456 0.32679-0.32936 0.35841-0.38846 0.03404-0.06361 0.0804-0.09866 0.11362-0.08592 0.08948 0.03434 2.1929 1.5779 2.1949 1.6107 0.0037 0.05972-0.63464 0.66975-0.92971 0.88853-1.1577 0.85832-2.423 1.2205-3.9286 1.1244zm2.1651-6.8318c-0.09834-0.82373-0.6661-1.4851-1.4563-1.6966-0.26619-0.07121-0.91562-0.06919-1.1895 0.0037-0.66145 0.17605-1.23 0.68549-1.4663 1.3139-0.04695 0.12486-0.09923 0.31359-0.11617 0.4194l-0.0308 0.19238h4.2869l-0.0278-0.23288zm8.3248 6.7749c-1.0807-0.17897-1.9775-0.62525-2.6916-1.3393-0.53924-0.53923-0.92046-1.1668-1.1757-1.9354-0.18342-0.55231-0.26103-0.95482-0.29732-1.5419-0.07514-1.2159 0.11877-2.2835 0.59732-3.2885 0.2865-0.60168 0.56942-0.99771 1.0534-1.4745 0.61482-0.60573 1.1648-0.9172 2.0119-1.1393 0.31596-0.082851 0.4523-0.094317 1.1095-0.093312 0.60591 9.275e-4 0.8229 0.017286 1.134 0.085497 0.81672 0.17905 1.4431 0.51268 1.9012 1.0126l0.24534 0.26775v-5.9654h3.1996v15.229h-2.9161v-0.6919c0-0.38054-0.01525-0.68582-0.03389-0.6784-0.01864 0.0074-0.1186 0.10947-0.22212 0.22677-0.22844 0.25882-0.52218 0.52285-0.77596 0.69745-0.28306 0.19475-0.89074 0.46983-1.2564 0.56871-0.42091 0.11384-1.3764 0.14462-1.8833 0.06067zm2.3679-2.836c0.42168-0.11247 0.74822-0.30047 1.0546-0.6072 0.51782-0.51834 0.7248-1.0736 0.7248-1.9446 0-0.85843-0.20686-1.4236-0.70476-1.9255-0.48568-0.48954-1.0365-0.69944-1.8428-0.70227-0.79759-0.0028-1.3977 0.21628-1.859 0.67864-0.85836 0.8604-0.98681 2.4892-0.28057 3.5579 0.3622 0.54807 0.94267 0.89686 1.694 1.0179 0.22442 0.03615 0.96974-0.0099 1.2136-0.07491zm-55.911-4.9616v-7.6143h3.3211v12.15h6.1967v3.0781h-9.5178zm11.016 2.4503v-5.1639h3.1996v10.328h-3.1996zm4.9817 0v-5.1639h3.0781v0.70878c0 0.38983 0.01367 0.70874 0.03038 0.7087 0.01671-3.97e-5 0.08371-0.084483 0.14889-0.18765 0.29288-0.46356 0.80831-0.90471 1.3634-1.1669 0.53378-0.25212 0.72878-0.28593 1.6367-0.28381 0.95527 0.00223 1.3056 0.068731 1.9036 0.36135 0.94809 0.46394 1.4634 1.2483 1.7302 2.6339 0.08254 0.42854 0.0864 0.58094 0.10124 3.9995l0.01543 3.554h-3.1565l-0.01832-3.0275c-0.01963-3.2448-0.02114-3.2694-0.23432-3.8375-0.12026-0.32047-0.49412-0.70372-0.7868-0.80654-0.52987-0.18616-1.3127-0.10844-1.7486 0.17358-0.27351 0.17696-0.41694 0.35108-0.57998 0.70407-0.25457 0.55116-0.25559 0.56553-0.27283 3.8272l-0.01568 2.9667h-3.1949zm11.664-2.4503v-7.6143h3.1996v4.5386c0 2.799 0.01449 4.5296 0.0378 4.5152 0.02079-0.01285 0.83468-0.9451 1.8086-2.0717 0.97396-1.1266 1.7908-2.0559 1.8151-2.0653 0.02437-0.00934 0.90868-0.012231 1.9651-0.00643l1.9208 0.010549-1.9767 2.2478c-1.0872 1.2363-2.0302 2.3046-2.0956 2.374l-0.11896 0.12616 2.048 2.7599c1.1264 1.5179 2.048 2.7689 2.048 2.7798 0 0.01097-0.89761 0.01944-1.9947 0.01883l-1.9947-0.0011-1.6975-2.5505c-0.9336-1.4028-1.7128-2.5505-1.7314-2.5505-0.01869 0-0.03397 1.1482-0.03397 2.5516v2.5516h-3.1996zm-15.328-4.1773c-0.58193-0.082061-1.1094-0.47472-1.384-1.0302-0.13384-0.2708-0.1543-0.35187-0.16961-0.67215-0.021587-0.45152 0.06147-0.79013 0.27427-1.1181 0.65255-1.0059 2.0444-1.1489 2.8772-0.29561 0.35765 0.36644 0.52404 0.7795 0.52597 1.3057 0.0018 0.50214-0.19805 0.95928-0.57561 1.3164-0.43089 0.40752-0.96135 0.57677-1.5483 0.494z"/>
  </g>
 </g>
</svg>
